<svg xmlns="http://www.w3.org/2000/svg" viewBox="0 0 264 248" role="img" aria-label="Fibrilação atrial pré-excitada"><defs><pattern id="p1" width="1" height="1" patternUnits="userSpaceOnUse"><path d="M1 0V1M0 1H1" fill="none" stroke="#F3C9C3" stroke-width=".12"/></pattern><pattern id="p5" width="5" height="5" patternUnits="userSpaceOnUse"><rect width="5" height="5" fill="url(#p1)"/><path d="M5 0V5M0 5H5" fill="none" stroke="#E39C93" stroke-width=".3"/></pattern></defs><rect width="264" height="248" fill="#FFF8F7"/><rect x="10.0" y="12.0" width="250.0" height="226.3" fill="url(#p5)"/><text x="10.0" y="8" font-family="Figtree,system-ui,sans-serif" font-size="4.2" font-weight="600" fill="#23272E">Fibrilação atrial pré-excitada</text><text x="260" y="8" text-anchor="end" font-family="Figtree,system-ui,sans-serif" font-size="3.4" fill="#5E646B">laudo: FA taquicárdica em portador de WPW</text><polyline fill="none" stroke="#23272E" stroke-width=".45" stroke-linejoin="round" points="17.00,42.54 17.40,42.62 17.60,42.66 18.25,42.42 18.55,42.75 20.05,42.30 20.40,42.09 21.90,42.45 22.25,42.31 22.40,42.80 23.80,42.66 24.60,42.83 24.70,43.13 24.95,42.86 25.55,42.96 25.70,43.29 25.90,43.19 26.05,43.36 26.20,43.01 26.25,42.52 26.95,42.90 27.15,43.07 27.50,42.71 27.80,42.68 28.15,42.05 28.35,40.87 28.45,40.17 28.60,39.39 28.90,37.30 29.00,36.83 29.20,35.10 29.25,34.42 29.35,33.31 29.40,32.65 29.50,31.66 29.55,30.77 29.65,29.80 29.75,28.44 29.85,27.36 29.95,25.77 30.05,25.12 30.10,25.01 30.25,26.14 30.30,26.73 30.50,31.92 30.65,35.30 30.75,37.04 30.90,40.01 31.00,41.66 31.10,42.92 31.15,43.37 31.30,43.63 31.55,44.34 31.65,44.19 32.80,44.39 33.50,44.90 33.70,45.28 33.75,44.97 33.80,44.90 34.20,45.58 34.35,45.64 34.45,45.65 34.55,45.73 34.65,46.08 34.75,46.19 34.80,46.34 34.90,46.06 35.15,46.57 35.25,46.38 35.50,46.72 35.90,46.38 36.15,45.65 36.30,44.98 36.65,44.09 36.80,43.58 37.40,42.60 38.40,43.18 38.90,43.20 39.10,43.33 40.05,43.46 40.15,43.49 40.25,43.57 40.45,43.49 40.50,43.65 40.70,43.03 40.80,42.68 40.95,42.16 41.05,41.78 41.25,40.63 41.65,36.74 41.70,36.40 41.90,34.34 42.05,32.61 42.25,29.42 42.45,26.86 42.70,24.83 42.75,24.49 42.85,24.81 42.90,25.27 42.95,25.97 43.00,26.35 43.05,27.55 43.15,30.61 43.20,31.85 43.30,33.81 43.55,39.45 43.65,41.18 43.70,41.69 43.75,41.95 43.80,42.78 43.85,43.38 43.95,44.20 44.00,44.33 44.10,43.76 44.30,43.89 44.40,43.75 44.55,44.17 44.70,44.22 44.95,44.58 45.20,44.67 45.30,44.51 45.50,44.55 45.60,44.43 45.80,44.57 45.95,44.36 46.10,44.55 47.00,44.34 47.10,44.67 47.45,44.89 47.55,45.28 47.80,45.47 48.15,45.54 48.50,44.88 49.00,43.28 49.30,42.91 49.50,43.08 50.10,42.91 50.60,42.52 51.05,42.36 51.35,41.98 51.85,42.50 51.95,42.53 52.00,42.74 52.70,42.56 53.75,42.52 54.00,42.88 54.90,42.40 55.70,42.40 56.15,42.55 56.25,42.47 56.35,42.89 57.25,42.77 57.35,42.96 57.60,42.90 57.75,42.80 58.00,42.96 58.20,42.95 58.30,42.69 59.20,42.54 59.80,42.49 60.70,42.94 61.00,43.15 61.25,43.03 61.35,43.35 61.60,43.44 61.85,43.55 62.10,43.51 62.15,43.63 62.20,43.50 62.25,43.09 62.70,42.62 62.90,42.26 63.00,42.34 63.20,41.39 63.45,39.88 63.50,39.63 63.55,39.05 63.65,38.60 63.80,37.39 64.05,35.94 64.30,33.54 64.45,31.52 64.60,29.75 64.70,28.68 64.80,27.59 64.90,26.35 64.95,25.96 65.00,25.98 65.05,25.70 65.15,26.79 65.20,27.08 65.30,28.99 65.45,32.74 65.60,35.46 65.85,40.21 65.90,41.06 65.95,41.68 66.00,42.01 66.10,43.25 66.15,43.44 66.30,43.41 67.00,44.18 67.45,44.24 67.75,43.95 67.90,43.99 68.05,44.15 68.50,44.67 68.60,44.88 68.70,44.58 68.80,45.00 68.85,45.24 68.95,45.24 69.00,45.40 69.10,45.48 69.15,45.62 69.35,45.46 69.50,45.75 69.60,45.74 69.65,45.89 69.75,45.68 70.40,46.17 70.50,46.28 70.55,45.90 70.95,45.27"/><path d="M11.0 42.0h1.6v-10.0h4v10.0h1.6" fill="none" stroke="#23272E" stroke-width=".45"/><text x="18.0" y="17.0" font-family="Figtree,system-ui,sans-serif" font-size="3.6" font-weight="600" fill="#23272E">I</text><polyline fill="none" stroke="#23272E" stroke-width=".45" stroke-linejoin="round" points="17.00,102.21 18.30,102.10 18.55,102.38 20.00,101.89 20.30,101.68 22.05,102.05 22.25,101.89 22.40,102.23 23.90,101.99 24.60,102.00 24.70,102.29 25.10,101.83 25.80,101.75 25.90,101.52 26.05,101.57 26.20,101.18 26.25,100.68 26.90,101.11 27.15,101.66 28.00,101.63 28.25,102.16 28.35,102.57 28.50,102.60 28.70,102.99 29.00,103.08 29.10,102.31 29.20,102.23 29.25,102.28 29.35,103.30 29.50,105.45 29.55,105.86 29.65,107.46 29.85,109.12 29.95,109.24 30.00,109.58 30.05,109.65 30.20,110.47 30.25,110.53 30.35,110.11 30.40,109.61 30.50,108.06 30.65,106.51 30.90,103.66 31.25,100.84 31.35,100.73 31.55,100.80 31.65,100.47 32.85,100.93 33.60,100.95 33.70,101.09 33.75,100.74 34.30,100.59 34.40,100.23 34.75,100.14 34.95,99.44 35.15,99.64 35.20,99.53 35.25,99.21 36.15,99.47 36.30,99.97 36.45,100.50 37.20,101.85 37.95,102.64 38.55,102.72 39.85,102.19 40.55,101.54 40.65,101.21 40.75,101.14 40.85,100.70 40.90,100.68 41.15,101.49 41.25,102.01 41.60,102.32 41.70,102.86 41.95,102.40 42.00,102.67 42.30,106.20 42.45,108.38 42.50,108.87 42.60,108.87 42.70,109.40 42.90,109.74 42.95,109.92 43.05,109.81 43.15,109.11 43.20,108.60 43.25,107.74 43.55,104.73 43.75,102.96 44.00,102.84 44.15,102.03 44.55,101.45 44.90,101.40 45.20,100.86 45.30,100.57 45.50,100.49 45.60,100.31 45.80,100.43 46.00,100.07 47.10,99.98 47.20,99.77 48.20,100.49 49.45,102.39 50.15,102.09 50.55,101.91 51.40,102.21 51.85,102.64 52.05,102.79 53.90,102.15 54.25,101.45 56.00,102.31 56.25,102.30 56.35,102.71 57.30,102.69 57.95,102.06 58.35,101.50 60.20,102.05 60.95,102.51 61.90,101.82 62.20,101.42 62.25,101.01 62.90,101.09 63.40,102.35 63.50,102.71 64.10,101.86 64.20,102.41 64.25,102.78 64.35,104.06 64.45,105.14 64.60,107.17 64.75,108.58 64.95,109.43 65.00,109.77 65.05,109.80 65.15,110.30 65.25,110.18 65.60,106.06 65.80,104.06 66.00,102.54 66.20,101.84 67.25,101.97 67.35,101.60 67.65,101.46 68.10,100.96 68.50,100.83 68.60,100.87 68.70,100.53 68.85,100.66 69.00,100.07 69.20,99.95 69.35,99.47 69.70,99.17 69.75,98.96 70.40,99.55 70.50,99.67 70.55,99.45 70.95,100.55"/><path d="M11.0 102.1h1.6v-10.0h4v10.0h1.6" fill="none" stroke="#23272E" stroke-width=".45"/><text x="18.0" y="77.1" font-family="Figtree,system-ui,sans-serif" font-size="3.6" font-weight="600" fill="#23272E">II</text><polyline fill="none" stroke="#23272E" stroke-width=".45" stroke-linejoin="round" points="17.00,161.81 17.40,161.68 17.65,161.64 19.25,161.77 20.55,161.72 22.30,161.73 22.55,161.59 24.95,161.26 25.15,161.05 25.55,161.02 25.75,160.62 26.15,160.29 27.05,160.58 27.45,161.09 27.80,161.10 28.00,161.38 28.15,162.07 28.25,162.82 28.40,164.23 28.55,165.16 28.80,167.20 29.00,168.39 29.10,168.47 29.15,168.70 29.25,170.00 29.30,170.91 29.65,179.80 29.80,182.93 29.95,185.61 30.00,186.31 30.10,187.06 30.15,187.08 30.25,186.53 30.30,185.71 30.35,184.27 30.40,182.41 30.50,178.29 30.65,173.35 30.80,168.79 30.95,164.42 31.10,161.27 31.15,160.39 31.25,159.47 31.40,158.93 31.65,158.42 32.90,158.67 33.50,158.22 33.75,157.91 34.15,157.29 34.55,156.60 34.65,156.23 34.75,156.09 34.80,155.80 35.10,155.23 35.50,154.73 35.90,155.13 36.15,155.96 36.40,157.76 36.90,160.17 37.40,161.64 38.05,161.82 38.90,161.52 39.05,161.32 39.90,160.87 40.15,160.61 40.25,160.38 40.45,160.30 40.50,160.09 40.90,160.58 41.05,161.56 41.30,164.07 41.60,167.30 41.70,168.60 41.90,170.22 41.95,170.82 42.00,171.64 42.05,172.75 42.40,182.43 42.45,183.66 42.50,184.57 42.65,186.04 42.70,186.71 42.75,187.06 42.85,186.90 42.90,186.60 43.00,185.61 43.05,184.40 43.20,178.89 43.30,175.54 43.55,167.42 43.65,164.89 43.70,163.87 43.80,162.27 43.90,161.21 43.95,160.79 44.00,160.64 44.10,160.60 44.25,160.07 44.40,159.97 44.50,159.45 44.70,159.38 44.95,158.83 45.00,158.85 45.25,158.27 45.95,157.89 46.05,157.66 47.00,157.82 47.20,157.23 47.45,157.18 47.60,156.86 47.80,156.80 48.15,157.03 48.50,158.23 49.05,160.72 49.30,161.40 50.50,161.48 51.10,161.92 51.40,162.34 53.20,161.98 53.80,161.70 54.05,161.16 54.25,160.90 55.55,161.83 57.25,162.11 57.35,161.84 57.55,161.86 57.65,161.61 57.75,161.63 58.00,161.16 58.20,160.85 59.25,161.35 59.85,161.54 60.95,161.51 61.25,161.38 61.40,161.00 61.60,160.77 62.10,160.21 62.25,160.06 62.70,160.56 63.00,161.13 63.20,162.61 63.55,165.72 63.65,166.06 63.80,167.07 64.10,168.48 64.20,170.01 64.25,170.89 64.65,180.71 64.80,183.29 64.95,185.61 65.05,186.23 65.15,185.64 65.20,185.29 65.25,184.38 65.30,182.77 65.45,177.15 65.60,172.74 65.80,166.87 65.90,164.35 65.95,163.35 66.05,161.83 66.10,160.99 66.15,160.64 67.15,159.80 67.25,159.87 67.35,159.49 67.70,159.58 67.90,159.26 68.00,159.03 68.20,158.84 68.40,158.40 68.75,158.05 68.95,157.15 69.00,156.81 69.10,156.75 69.25,156.45 69.35,156.15 69.45,155.80 69.55,155.78 69.70,155.46 70.50,155.53 70.80,156.72 70.95,157.42"/><path d="M11.0 162.2h1.6v-10.0h4v10.0h1.6" fill="none" stroke="#23272E" stroke-width=".45"/><text x="18.0" y="137.2" font-family="Figtree,system-ui,sans-serif" font-size="3.6" font-weight="600" fill="#23272E">III</text><polyline fill="none" stroke="#23272E" stroke-width=".45" stroke-linejoin="round" points="74.00,41.47 74.40,41.78 74.60,42.21 74.70,42.25 75.20,44.37 75.25,44.41 75.35,45.02 75.45,46.07 75.55,46.15 75.70,46.63 75.85,46.40 76.20,47.23 76.30,46.80 76.45,45.71 76.50,45.07 76.70,43.84 76.95,42.60 77.15,41.76 77.30,41.40 77.40,41.05 77.85,41.23 78.40,40.91 78.85,41.08 78.95,41.44 79.30,41.19 79.40,41.75 80.00,41.73 80.10,41.69 80.20,41.61 80.80,41.33 81.00,41.15 81.05,41.46 81.80,41.22 82.30,41.41 82.60,41.88 83.30,41.88 83.85,41.61 84.60,41.34 85.55,41.14 86.25,40.91 86.65,41.42 87.20,41.69 87.25,41.96 87.65,42.14 87.75,42.33 87.90,42.13 88.00,42.22 88.15,42.74 88.35,43.14 88.50,44.13 88.75,45.22 88.95,45.58 89.10,46.08 89.25,46.50 89.35,46.27 89.50,47.15 89.55,47.30 89.75,47.02 89.95,45.47 90.00,44.83 90.30,42.99 90.65,41.79 90.90,41.52 91.45,41.12 92.10,40.95 92.85,40.66 92.95,41.00 93.35,40.72 93.65,40.76 93.80,40.82 93.90,41.16 94.00,40.97 94.15,41.33 94.40,41.60 94.60,41.73 94.70,42.02 95.00,41.97 95.70,42.28 95.90,42.05 96.30,41.97 96.95,41.29 97.10,41.14 97.35,41.21 97.45,40.61 98.45,40.97 98.75,41.44 99.15,41.80 99.85,41.94 100.05,42.21 100.30,42.50 100.50,42.97 100.65,43.66 100.75,44.27 100.90,44.83 101.00,45.56 101.20,46.04 101.25,46.23 101.30,46.19 101.35,46.37 101.40,46.34 101.45,46.01 101.50,45.98 101.60,46.62 101.75,47.33 101.80,47.33 102.00,46.10 102.05,45.97 102.15,45.00 102.45,42.85 102.55,42.13 102.75,41.43 102.90,41.25 103.10,41.72 104.05,41.47 104.35,41.16 104.70,41.09 104.75,41.30 105.45,40.99 105.65,40.71 105.70,40.80 105.75,41.12 106.10,40.97 106.20,40.81 106.25,41.04 106.30,40.86 106.40,41.09 106.60,40.80 106.70,41.30 106.85,41.26 106.95,41.53 107.50,41.48 108.00,41.88 108.55,41.81 108.80,41.46 108.95,41.69 109.30,41.12 109.55,41.55 109.80,41.65 110.45,41.85 110.55,42.07 112.45,41.50 112.65,41.73 112.80,41.74 112.90,41.99 113.30,41.88 113.40,42.12 114.80,41.79 115.90,41.30 116.70,41.64 116.90,41.85 119.00,41.35 119.55,41.69 119.90,41.80 119.95,41.90 120.05,42.69 120.15,43.28 120.40,46.07 120.45,46.73 120.55,47.43 120.70,48.93 120.75,49.62 120.80,49.56 120.90,49.73 120.95,49.02 121.00,48.03 121.10,46.49 121.20,44.63 121.35,43.54 121.45,42.94 121.60,42.60 121.70,42.61 121.75,42.14 121.85,41.66 122.10,41.90 122.55,41.64 122.70,41.38 124.40,41.02 124.70,40.80 125.10,41.25 125.20,41.27 125.25,41.48 125.80,41.45 126.30,41.46 126.55,41.44 127.15,41.49 127.45,41.29 127.90,41.15 128.15,40.84 128.30,40.85 128.70,41.41 129.05,41.93 129.25,42.06 129.35,42.02 129.50,42.62 129.65,43.50 130.00,45.18 130.15,45.72 130.20,45.83 130.25,46.17 130.55,46.36 130.75,47.06 130.90,47.33 130.95,47.12 131.00,46.67 131.05,46.45 131.15,45.37 131.30,44.06 131.35,43.45 131.55,42.06 131.75,41.32 131.90,41.27 132.00,40.94 132.25,41.25 132.40,41.39 132.50,41.26 132.55,41.50 133.00,41.26 133.15,41.48 133.45,41.40"/><text x="75.0" y="17.0" font-family="Figtree,system-ui,sans-serif" font-size="3.6" font-weight="600" fill="#23272E">aVR</text><polyline fill="none" stroke="#23272E" stroke-width=".45" stroke-linejoin="round" points="74.00,103.32 74.20,102.98 74.40,101.97 74.65,100.23 74.75,99.54 74.80,99.35 75.05,97.47 75.20,96.85 75.25,96.84 75.35,95.72 75.40,94.76 75.50,92.62 75.85,85.47 75.95,84.05 76.15,81.62 76.20,81.32 76.25,81.26 76.40,82.50 76.45,83.42 76.55,86.31 76.65,89.49 76.80,93.41 76.90,95.77 77.00,98.41 77.10,100.57 77.15,101.49 77.25,102.77 77.35,103.81 77.40,104.06 77.60,104.11 77.75,104.31 78.15,104.78 78.25,104.96 78.60,105.32 78.85,105.64 79.20,105.83 79.30,105.92 79.40,105.67 79.75,105.97 79.85,106.12 80.05,105.95 80.15,106.37 80.25,106.32 80.35,106.62 80.60,106.89 80.95,107.53 81.30,107.48 81.65,107.41 81.85,107.11 82.15,106.22 82.35,105.72 82.65,104.74 83.20,103.37 85.25,103.39 85.75,103.45 85.90,103.76 86.25,104.15 87.10,103.80 87.55,103.54 88.00,101.28 88.20,99.73 88.25,99.19 88.35,98.56 88.50,96.68 88.65,95.82 88.80,94.35 88.90,92.79 89.00,90.79 89.10,88.65 89.15,87.66 89.25,85.21 89.30,84.41 89.55,81.94 89.60,81.59 89.75,81.55 89.85,82.87 89.90,83.71 89.95,85.15 90.00,86.98 90.15,91.44 90.30,95.55 90.50,100.14 90.60,101.98 90.75,103.95 90.80,104.28 91.15,104.49 91.50,105.05 91.90,104.87 92.05,104.94 92.15,105.24 92.40,105.27 92.90,105.77 93.10,105.88 93.30,106.19 93.45,106.21 93.65,106.60 93.90,106.96 94.00,107.42 94.10,107.58 94.30,107.90 94.60,108.01 94.80,107.87 94.95,107.87 95.30,106.93 95.80,104.84 96.25,103.67 96.75,103.29 97.35,103.24 97.45,103.55 98.35,103.57 98.45,103.83 98.85,103.86 99.80,103.24 100.15,101.59 100.40,99.87 100.50,98.83 100.70,96.44 100.80,95.75 100.85,95.52 100.95,94.41 101.00,93.76 101.05,92.86 101.15,90.77 101.20,89.81 101.25,88.56 101.30,87.66 101.40,85.43 101.55,82.83 101.75,80.93 101.85,80.49 101.90,80.73 102.05,82.42 102.10,83.68 102.25,88.58 102.55,97.37 102.70,100.92 102.80,102.54 102.85,103.27 102.90,103.76 103.00,104.28 103.25,104.09 103.50,104.27 104.00,104.35 104.15,104.87 104.70,105.14 105.25,105.44 105.35,105.69 105.60,105.95 105.70,106.18 105.90,106.24 106.10,106.60 106.25,106.97 106.30,107.24 106.50,107.29 106.60,107.58 106.70,107.37 106.90,107.37 107.35,106.74 107.75,104.87 108.05,103.65 108.60,102.77 108.85,102.83 109.25,102.93 109.55,102.80 109.65,103.19 110.35,102.83 111.00,102.38 112.55,102.63 112.65,102.66 112.80,102.93 113.30,103.01 114.00,102.91 115.20,102.97 116.20,103.08 116.75,103.34 117.25,103.29 118.25,103.46 118.70,103.69 119.05,103.74 119.50,103.46 119.90,103.58 119.95,103.81 120.00,103.84 120.10,103.04 120.15,102.44 120.35,98.22 120.45,95.57 120.50,94.68 120.70,92.29 120.75,91.51 120.80,91.06 120.95,88.25 121.00,87.55 121.05,87.33 121.10,87.44 121.20,88.41 121.25,88.65 121.30,89.28 121.35,90.25 121.45,92.90 121.55,95.04 121.65,96.96 121.70,98.39 121.75,100.12 121.80,101.47 121.85,102.52 121.90,102.95 122.00,103.26 122.55,103.67 122.65,104.14 122.90,104.16 123.25,104.26 124.90,104.35 125.50,104.09 126.55,103.19 126.80,103.06 127.10,103.11 127.25,103.64 127.95,104.25 128.05,104.43 128.45,104.32 128.65,104.15 129.00,103.30 129.35,101.02 129.50,99.69 129.75,96.25 129.85,95.50 130.00,93.76 130.15,90.61 130.35,85.93 130.45,83.56 130.50,82.58 130.60,81.48 130.75,80.53 130.90,80.04 131.00,80.62 131.05,81.20 131.10,82.33 131.15,84.04 131.35,91.95 131.45,95.07 131.50,96.82 131.55,98.33 131.65,100.59 131.75,102.31 131.80,102.97 132.00,104.75 132.25,104.82 132.40,105.04 132.50,105.35 132.65,105.33 133.45,105.74"/><text x="75.0" y="77.1" font-family="Figtree,system-ui,sans-serif" font-size="3.6" font-weight="600" fill="#23272E">aVL</text><polyline fill="none" stroke="#23272E" stroke-width=".45" stroke-linejoin="round" points="74.00,161.64 74.20,161.85 74.50,163.19 74.70,164.23 75.05,165.17 75.25,165.17 75.40,166.07 75.45,166.76 75.55,168.69 75.70,171.23 75.75,172.29 75.80,173.57 75.85,174.55 75.95,175.80 76.05,176.67 76.15,177.61 76.25,178.06 76.40,177.80 76.45,177.28 76.50,176.49 76.65,172.85 76.85,168.67 77.10,163.91 77.20,162.58 77.25,162.06 77.40,161.32 77.65,161.03 78.05,160.64 78.55,160.31 78.80,159.71 78.90,159.58 78.95,159.37 79.30,159.32 79.50,158.88 79.95,158.66 80.10,158.57 80.55,158.23 80.65,157.88 81.00,157.72 81.10,157.48 81.80,157.94 82.25,159.03 83.10,160.88 83.35,161.21 84.55,161.76 85.75,161.84 86.15,161.47 86.75,161.06 87.20,160.97 87.50,160.82 87.70,161.38 88.05,163.09 88.15,163.46 88.25,164.25 88.35,164.72 88.50,165.61 88.70,166.09 88.75,166.29 88.85,167.39 89.00,169.80 89.20,173.61 89.30,175.69 89.35,176.33 89.50,176.83 89.60,177.62 89.70,177.82 89.75,177.84 89.85,177.31 89.90,176.82 90.00,174.61 90.10,172.14 90.40,165.85 90.50,163.96 90.65,161.92 90.75,160.88 90.80,160.56 91.30,160.42 91.70,160.44 91.90,160.52 92.90,159.87 93.35,159.47 93.65,159.08 93.85,158.53 94.05,157.87 94.15,157.35 94.30,157.05 94.40,156.92 94.45,156.73 94.90,156.60 95.25,157.33 95.75,159.24 95.95,159.92 96.50,161.27 97.10,162.02 97.35,161.97 97.45,162.26 98.35,161.95 98.60,161.35 98.95,161.00 99.80,161.28 99.95,161.66 100.40,163.85 100.60,165.44 100.75,166.12 100.90,166.52 101.00,167.09 101.05,167.90 101.10,168.97 101.20,170.57 101.35,173.51 101.45,175.86 101.50,176.80 101.55,177.22 101.80,178.45 101.85,178.87 101.90,178.92 102.00,178.50 102.05,178.03 102.10,177.24 102.20,174.84 102.40,170.13 102.65,164.85 102.75,163.18 102.90,161.43 103.00,160.70 103.75,160.55 104.05,160.49 104.30,160.24 104.70,160.19 104.90,159.90 105.65,159.58 105.75,159.13 106.20,158.69 106.35,158.17 106.65,157.93 106.75,157.79 106.95,157.61 107.35,158.29 108.05,160.87 108.70,161.98 109.05,162.10 109.35,162.28 109.55,162.05 109.65,161.74 110.45,161.79 110.60,161.78 111.15,162.13 112.45,162.28 112.65,162.02 112.90,161.57 113.30,161.54 113.55,161.48 116.00,161.97 116.60,161.60 116.90,161.33 118.25,161.46 119.85,161.14 119.90,161.05 120.00,160.31 120.15,160.72 120.35,162.76 120.45,164.12 120.55,164.90 120.75,165.29 120.80,165.79 120.85,166.50 120.90,167.56 121.00,170.83 121.05,171.84 121.15,173.01 121.20,173.37 121.25,173.48 121.30,173.32 121.35,172.60 121.55,168.69 121.60,167.87 121.65,166.78 121.75,164.16 121.80,163.06 121.85,162.24 121.95,161.60 122.05,161.27 122.60,161.01 123.45,160.93 124.45,161.13 124.75,161.29 125.05,160.90 125.20,160.92 125.50,160.91 126.70,161.85 127.15,161.66 127.40,161.33 128.10,161.11 128.55,161.05 129.00,161.20 129.25,162.66 129.35,163.38 129.55,164.43 129.75,166.12 129.90,166.77 130.00,167.47 130.10,169.09 130.25,172.03 130.45,176.65 130.50,177.56 130.55,178.12 130.75,178.82 130.90,179.04 131.00,179.12 131.05,178.75 131.10,178.13 131.15,177.00 131.30,172.43 131.40,169.74 131.55,166.02 131.65,164.10 131.80,162.20 131.95,160.97 132.05,160.65 132.40,160.02 132.60,159.65 133.00,159.60 133.20,159.40 133.45,159.29"/><text x="75.0" y="137.2" font-family="Figtree,system-ui,sans-serif" font-size="3.6" font-weight="600" fill="#23272E">aVF</text><polyline fill="none" stroke="#23272E" stroke-width=".45" stroke-linejoin="round" points="136.50,40.78 136.60,40.54 138.30,41.19 138.45,41.28 138.90,42.47 139.05,42.90 140.20,41.81 140.85,41.23 141.30,41.06 141.85,41.28 142.40,42.18 142.60,42.32 143.00,42.08 143.50,41.51 143.60,41.34 144.10,42.00 144.30,42.13 144.45,42.63 144.50,43.35 144.55,44.57 144.85,49.04 145.00,51.87 145.05,52.41 145.15,52.56 145.20,52.42 145.30,51.29 145.35,50.48 145.45,48.46 145.55,46.78 145.60,45.86 145.75,44.11 145.90,43.04 146.40,42.35 146.75,42.01 147.15,41.47 148.40,40.90 148.70,40.53 148.80,40.40 149.80,40.72 150.05,40.61 150.55,40.23 151.25,40.60 151.85,41.09 152.35,41.49 152.90,42.46 153.05,42.86 153.30,42.88 153.70,42.43 154.10,41.86 155.65,41.19 155.95,41.30 156.40,42.00 156.70,42.49 156.85,42.69 157.80,41.94 158.35,41.71 159.10,41.38 159.95,41.53 160.35,42.30 160.45,42.34 160.50,42.54 161.20,42.01 162.20,41.44 162.25,41.23 162.70,41.23 163.10,40.68 163.80,41.61 164.05,42.75 164.10,43.18 164.20,45.36 164.40,48.71 164.45,49.46 164.60,52.52 164.65,53.32 164.70,53.75 164.75,53.92 164.85,53.81 164.90,53.48 165.00,52.04 165.25,47.24 165.60,43.66 165.75,42.66 166.10,41.89 166.60,41.39 166.70,41.43 166.80,41.18 167.40,41.09 167.70,40.84 168.10,40.08 168.20,39.96 168.30,39.66 168.55,39.52 168.75,39.25 169.15,39.87 169.25,40.31 169.35,41.21 169.40,41.40 169.80,41.25 170.40,40.86 171.35,41.64 172.00,41.89 172.20,41.54 172.65,40.58 173.00,40.00 173.50,40.78 173.75,41.92 173.85,42.76 173.90,42.93 175.90,42.24 176.55,41.35 176.80,40.61 177.35,40.67 177.55,40.86 177.80,41.50 177.90,41.93 178.35,42.49 178.85,42.49 179.80,42.21 180.35,41.57 180.70,41.07 181.60,41.26 182.00,41.90 182.60,41.96 182.95,41.56 183.75,42.65 183.90,43.30 183.95,43.93 184.05,46.60 184.10,47.51 184.30,50.00 184.45,52.50 184.50,53.06 184.55,53.31 184.65,53.16 184.70,52.87 184.95,47.94 185.05,46.29 185.30,43.78 185.45,42.85 186.50,41.61 186.85,41.46 187.20,41.25 187.30,41.05 187.80,40.62 188.25,39.64 188.35,39.46 188.45,39.14 188.85,39.56 189.25,40.14 190.60,40.21 191.20,40.59 192.15,40.76 192.20,40.86 192.30,41.54 192.70,42.07 193.95,41.67 194.20,41.32 194.30,41.05 194.55,41.02 195.10,41.65 195.25,42.19 195.40,43.62 195.45,44.46 195.55,46.78 195.70,48.31 195.75,48.97 195.85,50.79 195.90,51.54 195.95,51.80"/><text x="137.5" y="17.0" font-family="Figtree,system-ui,sans-serif" font-size="3.6" font-weight="600" fill="#23272E">V1</text><polyline fill="none" stroke="#23272E" stroke-width=".45" stroke-linejoin="round" points="136.50,102.50 138.00,102.62 138.60,102.73 138.75,103.01 140.80,102.73 142.00,102.71 142.50,102.63 142.85,102.26 143.15,101.44 143.45,99.63 143.60,98.83 143.80,98.36 143.90,97.70 144.00,97.60 144.15,96.41 144.35,95.13 144.40,94.54 144.45,94.21 144.55,95.57 144.70,97.15 144.85,99.54 144.90,100.64 145.00,103.17 145.20,106.48 145.25,106.68 145.60,103.27 145.65,103.00 147.15,102.98 147.30,103.15 148.15,103.06 149.20,102.57 150.20,102.31 150.85,101.69 152.50,102.40 154.40,102.54 158.60,102.53 159.70,102.36 161.60,102.59 162.05,102.48 162.65,101.62 162.85,100.54 163.15,98.81 163.30,98.16 163.45,97.75 163.55,97.38 163.65,97.18 163.75,96.21 164.00,94.47 164.05,93.86 164.10,93.88 164.20,95.64 164.30,96.68 164.45,99.13 164.50,100.10 164.60,102.87 164.65,104.01 164.70,104.76 164.75,105.30 164.85,106.92 164.90,107.02 165.00,106.53 165.25,103.83 165.55,102.99 165.90,102.53 167.25,102.62 168.50,102.04 169.05,102.06 169.25,102.27 169.35,102.92 170.15,102.49 170.80,101.89 171.70,102.44 172.40,102.17 172.90,101.23 173.30,101.43 173.75,102.14 173.85,102.84 173.95,103.03 174.90,103.36 176.20,102.81 177.10,101.63 177.20,101.61 177.30,101.47 177.70,101.87 177.90,102.34 178.00,102.84 179.20,103.16 180.45,102.80 181.15,102.49 182.20,102.55 182.45,102.28 182.70,101.24 182.80,100.58 182.90,100.10 183.05,99.27 183.20,98.91 183.40,98.04 183.45,98.02 183.50,97.79 183.55,97.22 183.65,96.59 183.75,95.60 183.80,95.27 183.85,94.67 183.90,94.69 184.00,95.85 184.05,96.98 184.10,97.70 184.15,98.09 184.20,98.72 184.30,100.28 184.35,101.46 184.40,102.89 184.45,104.09 184.60,106.64 184.65,107.34 184.70,107.44 184.85,106.13 184.95,104.93 185.10,103.74 185.20,103.28 187.70,102.93 188.75,101.68 190.20,101.61 191.55,102.13 192.20,102.59 192.35,103.23 193.05,103.54 193.15,103.76 193.60,103.28 194.00,102.46 194.20,101.37 194.55,98.94 194.70,98.18 194.90,96.55 194.95,96.31 195.00,95.79 195.10,94.35 195.25,93.00 195.40,93.04 195.45,93.69 195.55,96.40 195.60,97.22 195.65,97.66 195.70,98.48 195.85,102.87 195.90,104.12 195.95,104.97"/><text x="137.5" y="77.1" font-family="Figtree,system-ui,sans-serif" font-size="3.6" font-weight="600" fill="#23272E">V2</text><polyline fill="none" stroke="#23272E" stroke-width=".45" stroke-linejoin="round" points="136.50,163.14 136.75,162.68 137.35,162.71 137.95,163.75 138.15,163.91 138.30,164.09 141.35,163.87 142.60,163.87 142.95,162.94 143.15,161.93 143.40,159.79 143.60,157.88 143.80,156.53 143.90,155.55 144.00,155.05 144.30,151.78 144.35,151.34 144.45,149.71 144.55,149.26 144.70,149.81 144.95,151.33 145.05,152.38 145.10,153.19 145.20,155.37 145.25,156.29 145.40,157.71 145.50,158.93 145.60,159.67 145.80,162.17 145.95,163.21 146.05,163.55 146.30,163.91 147.05,164.34 147.55,164.63 149.20,164.55 150.15,164.41 150.55,163.73 151.00,162.24 151.65,161.91 152.10,162.47 152.80,162.77 155.60,163.28 158.10,163.05 160.00,163.35 160.95,163.54 162.00,163.67 162.50,162.69 162.65,162.23 162.85,160.88 163.10,158.64 163.50,155.76 163.65,154.61 163.90,151.58 164.00,150.48 164.05,149.59 164.10,148.99 164.25,148.94 164.45,150.39 164.55,151.09 164.75,152.73 164.90,155.52 164.95,156.23 165.10,157.69 165.20,158.85 165.35,160.11 165.55,162.29 165.70,163.26 166.00,163.52 166.25,163.73 166.35,164.01 167.75,164.03 169.10,164.12 169.25,164.24 169.30,164.49 170.00,164.20 170.40,163.43 170.90,161.99 171.20,161.48 172.05,162.59 173.05,162.10 173.80,163.03 173.90,163.36 175.45,163.75 176.30,163.48 177.15,162.84 177.70,162.97 177.95,163.41 178.10,163.61 178.60,163.96 179.75,164.13 182.20,163.62 182.55,162.47 182.75,161.10 182.85,160.40 182.95,159.39 183.30,156.78 183.50,155.19 183.65,153.33 183.80,151.75 183.90,150.08 183.95,149.81 184.10,150.62 184.25,151.76 184.50,153.59 184.55,153.97 184.65,155.89 184.75,157.15 184.85,158.12 184.95,158.84 185.35,162.62 185.50,163.78 185.65,164.14 185.95,164.37 186.10,164.58 187.00,164.57 187.25,164.66 188.30,164.31 188.90,163.90 190.00,163.74 190.75,161.74 190.95,161.77 191.30,162.31 191.55,163.06 191.80,163.39 192.10,163.84 192.25,163.96 192.40,164.33 193.30,164.80 193.55,164.65 193.85,163.84 194.00,163.33 194.30,160.89 194.40,159.88 194.80,155.20 194.95,153.18 195.00,152.31 195.10,150.15 195.25,147.95 195.35,146.64 195.40,146.54 195.60,148.05 195.65,148.60 195.70,149.47 195.80,151.62 195.90,153.05 195.95,153.68"/><text x="137.5" y="137.2" font-family="Figtree,system-ui,sans-serif" font-size="3.6" font-weight="600" fill="#23272E">V3</text><polyline fill="none" stroke="#23272E" stroke-width=".45" stroke-linejoin="round" points="199.00,46.02 200.95,45.48 201.50,44.64 201.90,43.67 202.55,43.81 202.85,44.57 203.15,45.05 203.55,45.02 203.90,44.59 204.05,44.01 204.30,42.29 204.45,41.10 204.80,36.96 205.05,33.40 205.25,29.81 205.35,28.57 205.40,27.64 205.45,26.46 205.50,25.50 205.55,24.78 205.60,24.48 205.70,24.44 205.75,24.11 205.80,23.32 205.95,22.11 206.00,22.00 206.10,22.90 206.15,23.66 206.20,25.04 206.25,26.79 206.30,29.15 206.35,31.76 206.45,36.42 206.50,39.01 206.55,41.11 206.65,44.06 206.70,45.32 206.80,46.41 206.85,46.63 207.15,46.48 208.25,46.42 208.40,46.65 210.05,46.57 210.15,46.79 211.00,46.79 211.60,45.59 212.05,43.09 212.40,41.58 212.70,39.27 213.05,35.14 213.20,33.02 213.30,31.20 213.40,29.03 213.45,28.16 213.55,26.95 213.65,25.31 213.70,24.78 213.75,24.49 213.85,24.63 213.90,24.35 214.00,23.08 214.10,22.66 214.20,21.81 214.25,21.71 214.35,22.73 214.40,23.52 214.45,25.31 214.60,33.14 214.65,36.03 214.70,38.69 214.80,42.33 214.85,43.88 214.90,45.03 214.95,45.81 215.00,46.27 215.55,45.76 215.70,46.28 216.10,46.46 216.75,47.19 218.60,47.98 218.95,47.91 219.75,45.90 219.85,45.47 219.95,44.83 220.30,43.95 220.55,43.53 220.95,43.77 221.00,43.98 221.65,43.89 222.00,43.21 222.15,42.36 222.30,41.20 222.50,38.97 223.00,32.54 223.05,31.97 223.25,28.44 223.35,27.06 223.50,24.13 223.55,23.08 223.60,22.30 223.65,22.05 223.70,22.10 223.75,21.79 223.85,19.59 223.95,18.13 224.00,17.99 224.10,18.41 224.15,19.09 224.25,21.72 224.40,27.61 224.45,29.75 224.50,32.09 224.70,40.24 224.75,42.05 224.80,43.18 224.85,44.10 224.90,44.61 225.30,44.54 225.65,45.44 225.80,45.53 226.55,46.17 227.85,46.59 228.45,46.84 228.55,46.96 228.95,46.49 229.25,46.01 229.80,43.73 230.00,42.76 231.25,42.91 231.30,43.16 232.85,42.96 233.90,42.53 235.10,42.61 235.40,42.90 236.30,43.13 236.65,43.35 238.80,43.13 239.45,43.46 240.00,43.53 240.65,43.33 240.85,42.72 241.15,41.11 241.30,39.94 241.40,38.88 241.95,34.81 242.00,34.33 242.10,32.63 242.20,31.26 242.30,29.65 242.40,28.13 242.50,26.21 242.55,25.75 242.60,25.66 242.65,25.31 242.70,24.12 242.75,22.27 242.85,19.59 242.90,18.51 242.95,18.20 243.05,18.73 243.10,19.64 243.20,22.60 243.25,24.34 243.30,26.45 243.40,30.19 243.60,38.48 243.65,40.31 243.70,41.71 243.75,42.63 243.80,43.16 243.90,43.66 244.25,44.33 244.30,44.61 244.55,45.03 245.65,45.57 246.10,46.06 246.45,46.15 246.55,46.31 247.00,46.33 247.20,46.51 248.05,46.45 248.35,46.19 248.70,45.52 249.05,43.70 249.20,42.79 249.45,42.07 249.95,42.17 250.25,42.64 250.50,43.24 251.10,43.50 252.40,43.33 252.80,42.82 253.10,41.54 253.30,39.96 253.55,36.89 253.85,32.33 253.95,30.64 254.00,29.96 254.20,26.12 254.30,24.72 254.40,22.47 254.50,20.88 254.65,19.77 254.75,18.35 254.80,18.14 254.90,16.63 254.95,16.63 255.05,17.53 255.10,18.25 255.15,19.54 255.20,21.41 255.35,27.90 255.45,32.77 255.50,34.96 255.65,40.24 255.70,41.57 255.75,42.54 255.80,43.23 255.85,43.60 256.15,43.65 256.60,43.61 256.95,43.62 257.25,43.58 257.35,43.73 258.45,43.11"/><text x="200.0" y="17.0" font-family="Figtree,system-ui,sans-serif" font-size="3.6" font-weight="600" fill="#23272E">V4</text><polyline fill="none" stroke="#23272E" stroke-width=".45" stroke-linejoin="round" points="199.00,104.94 200.20,104.86 201.50,104.45 202.20,103.56 202.95,103.73 203.15,103.92 203.60,103.79 203.90,103.55 204.15,102.77 204.50,101.01 204.70,99.46 205.00,96.14 205.20,93.44 205.40,90.40 205.45,89.51 205.55,88.25 205.65,87.64 205.70,87.49 205.75,87.13 205.80,86.35 205.90,85.41 205.95,85.14 206.05,85.55 206.10,86.38 206.15,87.91 206.20,89.78 206.25,92.05 206.35,97.44 206.40,99.81 206.50,103.73 206.55,105.23 206.60,106.10 206.65,106.67 206.70,106.94 206.95,106.23 207.05,105.43 209.95,105.32 210.15,105.60 211.00,105.93 211.35,105.73 211.65,105.11 211.95,104.07 212.15,103.13 212.65,100.76 212.85,98.84 213.10,96.32 213.20,95.10 213.40,92.02 213.50,90.53 213.60,89.27 213.70,87.72 213.80,86.79 213.85,86.42 214.00,84.31 214.05,83.76 214.15,83.04 214.20,82.90 214.30,83.68 214.35,84.60 214.40,86.11 214.45,88.35 214.55,94.53 214.65,100.17 214.70,102.54 214.75,104.06 214.80,105.25 214.85,106.03 214.90,106.56 214.95,106.74 215.10,106.01 215.15,105.51 215.20,105.23 215.65,105.35 216.45,105.78 216.55,105.90 216.75,105.80 216.90,106.21 218.25,106.64 218.50,106.89 219.10,106.85 219.55,106.11 219.80,105.60 220.00,104.73 220.45,103.62 221.70,103.43 222.10,102.69 222.30,101.59 222.50,100.09 222.70,98.13 222.95,95.19 223.10,93.61 223.20,92.10 223.60,85.49 223.65,85.21 223.70,85.14 223.75,84.63 223.90,81.56 223.95,80.78 224.00,80.53 224.10,81.11 224.15,81.92 224.20,83.57 224.25,85.51 224.35,90.71 224.50,97.38 224.55,99.30 224.60,100.96 224.70,103.45 224.75,104.52 224.85,105.30 224.90,105.33 225.00,104.91 225.75,104.79 225.95,104.95 227.05,105.26 228.30,105.76 228.55,106.02 229.15,105.90 229.80,104.13 230.10,103.05 230.25,102.64 231.30,102.93 232.90,102.73 234.00,102.26 234.40,102.28 235.10,102.49 236.10,102.88 236.95,103.00 239.80,103.21 240.55,102.97 240.85,102.39 241.15,101.30 241.30,100.41 241.40,99.65 241.50,99.13 241.90,96.11 242.00,95.26 242.10,93.56 242.25,91.34 242.35,90.29 242.45,88.72 242.50,88.12 242.60,87.59 242.65,87.01 242.70,85.91 242.80,83.44 242.85,82.46 242.90,81.72 242.95,81.66 243.05,82.66 243.10,83.91 243.20,88.16 243.30,92.76 243.35,94.67 243.50,99.71 243.55,101.04 243.65,103.12 243.70,103.82 243.75,104.12 244.15,103.88 244.50,104.49 245.50,104.55 246.00,104.96 246.20,105.23 247.25,105.35 248.00,105.59 248.55,105.30 248.90,104.58 249.15,103.39 249.50,102.72 249.85,102.43 250.20,102.65 250.60,103.13 251.70,103.24 252.45,103.00 252.80,102.58 253.10,101.67 253.30,100.56 253.55,98.39 254.05,92.13 254.30,88.22 254.40,86.40 254.50,84.95 254.60,84.01 254.65,83.69 254.70,83.15 254.75,82.38 254.80,81.99 254.90,80.77 254.95,80.80 255.00,81.23 255.05,82.08 255.10,83.36 255.15,85.28 255.30,93.05 255.35,95.33 255.45,99.33 255.50,101.14 255.55,102.25 255.65,103.62 255.70,104.11 255.75,104.37 256.00,103.59 258.45,102.98"/><text x="200.0" y="77.1" font-family="Figtree,system-ui,sans-serif" font-size="3.6" font-weight="600" fill="#23272E">V5</text><polyline fill="none" stroke="#23272E" stroke-width=".45" stroke-linejoin="round" points="199.00,163.75 200.95,163.63 202.50,163.15 203.35,163.14 204.15,162.20 204.50,161.23 204.70,160.43 204.95,158.58 205.45,153.99 205.55,153.45 205.95,154.08 206.05,154.84 206.10,155.69 206.20,158.08 206.35,162.40 206.40,163.59 206.55,165.74 206.60,165.79 206.80,165.40 207.05,163.96 207.30,163.83 208.70,163.88 209.95,163.87 210.95,164.42 211.55,164.04 211.90,163.44 212.55,161.52 212.65,161.37 212.80,160.51 213.20,157.37 213.40,155.31 213.50,154.33 213.75,152.74 213.90,152.67 214.05,152.66 214.20,152.85 214.30,153.80 214.35,154.49 214.40,155.40 214.45,156.71 214.55,160.19 214.65,163.09 214.70,164.21 214.75,164.87 214.80,165.32 215.05,164.68 215.20,163.75 215.60,163.79 216.45,164.08 216.55,164.22 216.75,164.18 216.85,164.44 217.55,164.58 218.65,164.72 219.50,164.44 220.25,163.18 221.75,162.88 222.10,162.42 222.30,161.89 222.40,161.27 222.45,161.20 222.70,159.56 223.00,157.05 223.10,156.37 223.20,155.24 223.30,153.86 223.45,152.35 223.55,151.58 223.70,151.60 223.80,151.65 223.90,151.13 223.95,151.06 224.05,151.53 224.10,152.00 224.15,152.94 224.25,155.32 224.35,158.46 224.50,161.74 224.60,163.33 224.75,164.29 225.00,163.71 226.35,163.97 226.75,164.05 227.25,164.21 227.75,164.27 228.50,164.39 229.40,163.96 230.45,162.53 230.75,162.44 230.90,162.69 231.70,162.95 232.75,162.87 233.30,162.49 234.65,162.39 237.00,162.69 238.30,162.56 239.85,162.88 240.60,162.76 241.00,162.09 241.30,160.99 241.40,160.45 241.55,159.85 241.70,158.79 242.00,156.94 242.10,155.54 242.25,154.01 242.45,152.88 242.65,152.90 242.70,152.78 242.80,152.03 242.90,152.02 242.95,152.21 243.05,153.45 243.10,154.41 243.30,159.98 243.45,162.18 243.60,163.57 243.75,163.38 244.05,162.98 244.25,163.02 244.40,163.30 245.55,163.51 245.95,163.83 247.15,164.00 247.45,164.00 247.65,164.16 248.65,164.08 249.55,162.65 250.00,162.44 250.65,162.89 251.85,162.91 252.40,162.69 252.75,162.34 253.15,161.59 253.30,161.21 253.55,159.91 254.10,155.20 254.20,153.97 254.45,151.72 254.50,151.46 254.85,151.37 254.95,151.99 255.00,152.34 255.05,153.05 255.10,154.03 255.15,155.38 255.30,160.04 255.35,161.24 255.50,163.67 255.55,164.03 256.25,162.79 257.25,162.56 257.40,162.79 258.45,162.66"/><text x="200.0" y="137.2" font-family="Figtree,system-ui,sans-serif" font-size="3.6" font-weight="600" fill="#23272E">V6</text><polyline fill="none" stroke="#23272E" stroke-width=".45" stroke-linejoin="round" points="17.00,216.35 18.30,216.24 18.55,216.52 20.00,216.03 20.30,215.82 22.05,216.19 22.25,216.03 22.40,216.37 23.90,216.13 24.60,216.15 24.70,216.43 25.10,215.97 25.80,215.89 25.90,215.66 26.05,215.71 26.20,215.32 26.25,214.82 26.90,215.26 27.15,215.80 28.00,215.77 28.25,216.30 28.35,216.71 28.50,216.74 28.70,217.13 29.00,217.22 29.10,216.45 29.20,216.37 29.25,216.42 29.35,217.44 29.50,219.59 29.55,220.00 29.65,221.60 29.85,223.26 29.95,223.38 30.00,223.72 30.05,223.79 30.20,224.61 30.25,224.67 30.35,224.25 30.40,223.75 30.50,222.20 30.65,220.65 30.90,217.80 31.25,214.98 31.35,214.87 31.55,214.94 31.65,214.61 32.85,215.07 33.60,215.09 33.70,215.23 33.75,214.88 34.30,214.73 34.40,214.37 34.75,214.28 34.95,213.58 35.15,213.78 35.20,213.68 35.25,213.35 36.15,213.61 36.30,214.11 36.45,214.64 37.20,215.99 37.95,216.79 38.55,216.86 39.85,216.33 40.55,215.68 40.65,215.35 40.75,215.28 40.85,214.84 40.90,214.82 41.15,215.63 41.25,216.16 41.60,216.47 41.70,217.00 41.95,216.54 42.00,216.82 42.30,220.34 42.45,222.52 42.50,223.01 42.60,223.01 42.70,223.54 42.90,223.88 42.95,224.06 43.05,223.95 43.15,223.25 43.20,222.74 43.25,221.88 43.55,218.88 43.75,217.10 44.00,216.98 44.15,216.17 44.55,215.59 44.90,215.54 45.20,215.00 45.30,214.71 45.50,214.63 45.60,214.46 45.80,214.57 46.00,214.21 47.10,214.12 47.20,213.92 48.20,214.64 49.45,216.53 50.15,216.23 50.55,216.06 51.40,216.35 51.85,216.78 52.05,216.93 53.90,216.29 54.25,215.59 56.00,216.45 56.25,216.45 56.35,216.85 57.30,216.84 57.95,216.20 58.35,215.64 60.20,216.20 60.95,216.66 61.90,215.96 62.20,215.56 62.25,215.15 62.90,215.23 63.40,216.49 63.50,216.85 64.10,216.00 64.20,216.55 64.25,216.92 64.35,218.20 64.45,219.28 64.60,221.31 64.75,222.72 64.95,223.57 65.00,223.92 65.05,223.94 65.15,224.44 65.25,224.32 65.60,220.20 65.80,218.20 66.00,216.68 66.20,215.98 67.25,216.11 67.35,215.74 67.65,215.60 68.10,215.10 68.50,214.97 68.60,215.01 68.70,214.67 68.85,214.80 69.00,214.21 69.20,214.09 69.35,213.62 69.70,213.31 69.75,213.11 70.40,213.69 70.50,213.81 70.55,213.59 71.20,215.27 71.55,215.82 72.45,216.28 72.60,215.89 73.30,215.95 73.45,215.84 74.30,216.16 74.65,216.74 75.05,216.72 75.15,217.13 76.30,216.61 76.70,215.82 76.80,215.57 77.10,215.34 78.05,215.83 79.70,216.33 80.20,217.48 80.60,216.96 80.80,216.63 80.90,216.49 80.95,216.62 81.05,217.84 81.20,219.23 81.25,219.93 81.30,220.91 81.35,221.59 81.45,222.31 81.55,222.69 81.90,223.96 82.00,223.77 82.40,219.33 82.65,217.10 82.75,216.48 83.35,215.84 83.90,215.87 84.25,215.33 84.35,215.25 84.45,214.77 84.80,214.92 84.90,214.34 86.05,214.03 86.15,213.75 86.50,213.87 86.55,213.53 87.20,213.93 87.60,214.42 88.00,214.65 88.90,215.75 89.35,216.04 89.90,216.40 90.95,216.64 91.75,216.46 92.15,215.94 92.70,215.67 92.80,215.36 93.05,215.38 93.25,215.64 93.40,216.37 93.50,216.62 93.65,216.64 93.75,217.00 93.90,217.28 94.25,216.88 94.35,217.50 94.55,219.35 94.75,221.63 94.80,222.41 94.85,222.86 94.95,222.73 95.00,222.62 95.05,222.74 95.15,223.31 95.30,223.35 95.35,223.53 95.40,223.44 95.50,222.68 95.65,220.95 96.00,217.25 96.25,215.68 96.30,215.46 97.65,215.78 98.35,215.72 98.45,215.30 98.95,215.25 99.15,215.04 99.30,214.79 99.40,214.26 99.50,214.20 99.65,213.51 99.90,213.05 99.95,212.84 100.10,212.80 100.20,212.51 100.60,212.75 101.20,213.93 101.35,214.58 102.35,216.37 102.55,216.75 102.85,216.67 102.95,217.26 103.85,216.86 104.15,216.12 104.55,215.65 105.30,215.75 105.45,215.83 105.90,216.92 106.10,217.54 106.50,217.18 106.55,217.66 106.60,218.34 106.70,219.17 106.85,220.92 106.90,221.70 106.95,222.72 107.00,223.37 107.25,223.37 107.30,223.57 107.35,224.04 107.40,224.25 107.50,224.42 107.60,223.98 107.65,223.58 107.90,220.73 108.00,219.94 108.15,218.21 108.35,216.62 108.55,215.45 110.20,215.56 110.30,215.27 111.10,215.37 111.20,215.25 111.25,214.83 111.70,214.74 111.75,214.41 111.80,214.47 111.90,214.15 112.10,214.33 112.20,213.81 112.35,213.82 112.45,213.55 112.95,214.28 113.65,215.61 114.25,216.47 114.35,216.50 114.45,216.34 114.80,216.96 115.25,216.22 115.95,216.12 116.00,215.91 116.85,216.41 117.90,216.70 118.30,216.17 118.40,215.88 118.80,215.93 118.90,215.69 120.25,216.12 121.40,216.63 122.10,216.18 122.40,215.81 123.70,216.12 124.65,216.12 125.10,215.84 125.40,215.65 125.45,215.37 125.50,214.84 125.60,214.57 125.70,214.32 126.05,214.46 126.20,213.67 126.25,213.27 126.35,214.01 126.40,214.71 126.45,216.24 126.50,218.02 126.55,219.22 126.65,221.18 126.70,221.98 126.80,222.49 126.85,222.20 127.10,219.67 127.20,218.02 127.30,216.93 127.45,216.01 127.60,215.73 129.85,216.14 130.20,216.51 130.60,215.94 130.70,215.91 130.75,215.72 131.80,216.22 132.05,216.39 133.40,216.13 133.75,216.43 134.50,215.67 134.75,216.56 134.80,216.93 135.15,217.34 135.25,217.54 135.45,217.54 135.50,217.68 135.60,218.47 135.70,219.68 135.75,220.06 135.95,223.12 136.00,223.69 136.05,224.01 136.40,223.96 136.45,224.08 136.50,224.46 136.60,224.27 136.65,223.91 136.75,222.34 137.10,218.18 137.20,217.46 137.40,216.17 137.95,215.24 138.00,215.19 138.05,214.94 138.50,215.05 138.65,214.77 139.30,214.86 139.40,214.59 139.85,214.62 140.00,214.35 141.00,214.27 141.10,214.02 141.20,214.08 141.35,213.41 142.25,213.64 142.65,214.94 143.35,215.99 143.95,216.19 145.25,216.10 145.35,215.68 145.45,215.67 145.55,215.32 146.25,215.42 147.20,216.07 148.45,216.29 148.55,216.01 149.30,216.83 149.40,217.11 149.75,217.04 149.80,217.31 149.95,218.66 150.05,219.81 150.10,220.24 150.20,221.83 150.25,222.39 150.35,222.75 150.60,223.52 150.70,223.99 150.80,223.97 150.85,223.60 151.25,219.44 151.55,216.96 151.75,216.20 152.10,215.66 152.30,215.82 152.50,215.02 154.00,215.33 154.50,214.61 154.80,214.75 154.90,214.33 155.05,214.26 155.75,213.55 156.55,214.51 157.10,215.44 157.80,216.51 158.05,216.68 158.35,216.63 158.45,216.91 159.25,216.33 159.55,216.06 161.50,216.46 161.65,216.93 162.10,216.91 162.65,216.57 163.10,215.74 163.95,215.76 164.05,215.63 164.75,215.92 165.65,216.54 166.20,216.45 167.10,215.94 168.25,215.89 168.50,215.93 168.70,216.78 169.30,216.48 169.35,216.57 169.50,217.72 169.60,219.06 169.70,219.69 169.80,221.27 169.85,221.87 169.95,222.49 170.05,222.74 170.20,223.61 170.30,223.78 170.55,223.20 170.75,221.27 171.00,218.60 171.30,216.36 171.95,216.16 172.20,216.10 172.30,215.88 172.40,215.80 172.50,215.66 172.85,215.60 173.05,215.35 173.30,215.35 173.45,215.10 174.00,215.09 174.45,214.54 174.60,214.13 174.80,214.11 174.90,213.78 175.00,213.90 175.10,213.55 175.45,213.63 175.95,213.95 176.25,214.71 176.90,215.82 177.65,216.18 179.30,216.37 179.40,216.59 180.00,216.52 180.10,216.71 182.10,216.19 182.20,215.90 182.65,215.89 182.75,215.59 184.85,215.91 186.65,216.19 187.00,215.90 187.05,215.64 188.00,215.80 188.40,216.39 188.70,216.96 189.25,216.98 189.35,217.67 189.45,218.73 189.55,220.07 189.65,221.81 189.70,222.39 189.80,222.72 190.00,223.12 190.10,223.65 190.15,223.76 190.35,223.33 190.40,222.95 190.50,221.70 190.90,217.71 191.15,215.96 191.20,215.70 191.80,215.66 191.95,215.41 192.60,215.53 192.70,215.51 192.75,215.27 193.25,215.60 193.30,215.47 193.40,214.98 193.50,215.11 193.65,214.65 193.85,214.40 194.15,214.20 194.45,213.91 195.45,213.83 195.65,213.97 195.75,213.52 196.55,214.96 196.85,215.27 196.95,215.05 197.65,215.51 198.50,216.20 198.55,216.17 198.70,216.84 199.55,216.37 199.75,216.46 200.00,217.49 200.20,217.61 200.30,217.73 200.40,218.14 200.60,217.52 200.65,217.60 200.80,218.90 201.00,221.51 201.15,223.26 201.20,223.62 201.60,223.39 201.70,223.33 201.80,222.57 202.00,220.09 202.30,217.33 202.50,216.00 202.60,215.52 202.75,215.72 203.00,216.24 203.40,215.85 204.00,216.12 204.40,215.54 204.70,215.47 204.80,215.14 205.10,214.75 205.20,214.80 205.30,214.07 205.60,213.77 205.70,213.41 206.70,213.03 207.80,215.34 208.45,216.02 208.80,215.89 208.90,215.44 209.75,215.60 210.10,216.69 210.35,217.16 210.45,217.57 210.70,217.39 210.75,217.53 210.90,218.81 211.00,220.35 211.10,221.62 211.20,223.48 211.25,224.12 211.30,224.43 211.50,224.36 211.60,225.02 211.70,225.01 211.75,224.92 211.90,223.55 212.00,222.25 212.25,219.49 212.30,218.76 212.45,217.44 212.55,216.21 212.75,215.16 212.90,214.77 214.45,215.01 214.65,214.76 215.10,214.72 215.25,214.14 215.90,213.97 216.00,213.57 216.40,213.66 216.75,213.07 217.25,213.75 217.50,213.84 217.65,214.50 217.95,215.31 218.15,216.34 218.45,217.23 218.65,217.76 218.90,217.67 218.95,217.79 219.00,218.27 219.10,219.75 219.20,220.52 219.45,223.81 219.50,224.17 220.00,223.53 220.15,222.27 220.45,218.80 220.50,217.96 220.70,215.80 220.75,215.34 221.00,214.57 221.95,215.09 222.50,215.22 222.65,214.94 223.00,214.99 223.20,214.65 223.30,214.36 223.70,214.04 223.90,213.97 224.00,213.98 224.10,213.65 224.20,213.64 224.30,213.38 224.60,213.36 224.70,213.07 225.20,213.74 225.65,214.64 226.15,215.68 226.55,216.16 227.80,216.32 228.05,217.18 228.80,217.13 228.90,217.87 229.00,218.88 229.15,220.89 229.20,221.78 229.25,222.45 229.30,222.61 229.45,222.47 229.60,222.94 229.70,223.56 229.80,223.48 229.85,223.13 230.15,219.76 230.45,217.49 230.50,217.07 230.75,216.34 232.20,216.00 232.65,215.42 233.00,215.19 233.55,214.42 233.70,214.13 234.00,214.14 234.05,213.77 234.15,213.65 234.55,213.64 235.05,213.92 235.25,214.64 236.05,216.14 236.75,216.83 237.70,216.79 238.65,216.27 238.75,216.09 239.15,215.91 239.25,215.38 239.50,215.43 239.60,215.27 240.10,215.94 240.65,216.33 240.90,216.53 242.40,216.67 243.40,216.35 243.75,216.01 243.95,215.82 244.15,215.46 244.25,215.06 244.65,215.72 244.70,215.69 244.75,215.39 245.30,215.95 245.60,216.30 246.65,216.53 246.75,216.96 246.85,216.77 247.00,217.40 247.40,217.16 247.75,217.18 247.85,218.29 247.95,219.30 248.10,221.27 248.20,222.13 248.30,222.49 248.50,222.84 248.55,223.31 248.70,223.67 248.80,223.11 248.85,222.43 248.90,221.54 249.00,220.39 249.20,218.68 249.45,216.17 249.60,215.52 250.75,216.02 251.65,216.18 251.80,215.82 252.20,215.73 252.50,215.13 252.65,215.10 252.75,214.80 252.80,214.82 252.90,214.42 252.95,214.47"/><path d="M11.0 216.3h1.6v-10.0h4v10.0h1.6" fill="none" stroke="#23272E" stroke-width=".45"/><text x="18" y="198" font-family="Figtree,system-ui,sans-serif" font-size="3.6" font-weight="600" fill="#23272E">II</text><text x="10.0" y="245" font-family="Figtree,system-ui,sans-serif" font-size="3.2" fill="#5E646B">25 mm/s · 10 mm/mV · PTB-XL (PhysioNet), CC BY 4.0, registro 16497</text></svg>