<svg xmlns="http://www.w3.org/2000/svg" viewBox="0 0 264 218" role="img" aria-label="Padrão S1Q3 em taquicardia sinusal"><defs><pattern id="p1" width="1" height="1" patternUnits="userSpaceOnUse"><path d="M1 0V1M0 1H1" fill="none" stroke="#F3C9C3" stroke-width=".12"/></pattern><pattern id="p5" width="5" height="5" patternUnits="userSpaceOnUse"><rect width="5" height="5" fill="url(#p1)"/><path d="M5 0V5M0 5H5" fill="none" stroke="#E39C93" stroke-width=".3"/></pattern></defs><rect width="264" height="218" fill="#FFF8F7"/><rect x="10.0" y="12.0" width="250.0" height="196.0" fill="url(#p5)"/><text x="10.0" y="8" font-family="Figtree,system-ui,sans-serif" font-size="4.2" font-weight="600" fill="#23272E">Padrão S1Q3 em taquicardia sinusal</text><text x="260" y="8" text-anchor="end" font-family="Figtree,system-ui,sans-serif" font-size="3.4" fill="#5E646B">laudo: S em DI e Q em DIII</text><polyline fill="none" stroke="#23272E" stroke-width=".45" stroke-linejoin="round" points="17.00,37.23 17.30,37.30 17.45,37.43 18.05,37.55 18.15,37.85 18.25,37.46 18.90,37.56 19.15,36.87 19.25,36.11 19.35,35.20 19.40,34.54 19.50,32.60 19.65,31.83 19.70,32.52 19.75,34.24 19.80,35.62 19.90,38.92 19.95,39.77 20.15,39.77 20.25,39.12 20.35,38.35 20.55,38.03 21.15,37.26 21.65,37.11 21.75,36.99 22.30,36.89 22.40,36.52 23.10,36.19 23.35,35.81 23.65,35.69 23.75,35.58 23.90,35.17 24.45,35.04 24.75,34.99 25.05,35.25 25.45,36.10 25.80,36.79 27.10,37.36 27.50,37.40 27.55,37.66 28.25,37.54 28.60,36.97 28.80,36.84 28.85,36.98 29.05,36.53 29.40,36.25 29.85,36.77 30.35,37.13 30.55,37.24 30.65,37.52 31.75,37.43 31.90,37.67 32.50,37.52 32.70,37.61 32.80,36.71 32.95,36.16 33.05,35.10 33.10,34.21 33.20,33.11 33.25,32.25 33.30,31.95 33.35,32.05 33.40,33.06 33.50,37.11 33.55,38.87 33.60,39.50 33.70,40.32 33.80,40.08 33.90,39.55 33.95,39.47 34.05,38.66 34.20,38.17 34.85,37.72 34.95,37.48 35.45,37.53 35.60,37.10 36.60,36.72 36.75,36.41 37.30,35.89 37.70,35.16 37.90,35.02 38.05,34.96 38.30,34.85 38.45,34.98 38.55,34.96 38.70,35.17 38.75,35.08 39.40,37.00 39.65,37.32 39.95,37.55 40.10,37.43 41.05,37.80 42.25,37.56 42.35,37.34 42.55,37.17 42.90,36.55 43.90,36.91 44.25,37.40 44.80,37.70 46.25,37.91 46.40,37.72 46.50,37.56 46.65,36.47 46.75,36.32 46.90,34.72 47.00,33.18 47.10,32.49 47.15,32.45 47.20,33.39 47.35,39.40 47.40,40.23 47.45,40.30 47.50,40.67 47.65,40.11 47.75,39.48 47.80,38.99 48.15,37.87 48.60,37.77 48.70,37.49 49.40,37.34 49.60,37.03 50.35,36.80 50.45,36.50 50.65,36.36 51.00,36.03 51.05,36.14 51.20,35.51 51.40,35.34 51.45,35.23 51.60,35.28 51.75,35.08 52.35,35.12 53.00,36.43 53.45,37.22 54.20,37.71 54.75,37.70 55.25,37.94 55.50,38.03 56.35,37.45 56.50,37.07 56.60,36.92 56.80,36.74 56.85,37.00 56.90,37.05 56.95,36.83 58.20,37.45 58.90,37.72 59.00,37.79 59.70,37.77 60.00,37.54 60.05,37.81 60.20,37.63 60.55,35.93 60.60,35.54 60.75,33.28 60.80,32.68 60.85,32.49 60.90,33.12 60.95,34.61 61.05,38.39 61.10,40.13 61.15,41.29 61.20,41.57 61.25,41.17 61.30,40.45 61.35,40.29 61.40,40.44 61.45,40.22 61.55,38.99 61.95,37.78 62.80,37.02 63.20,37.08 64.05,36.69 64.20,36.38 64.55,35.94 64.75,35.89 64.90,35.33 65.65,34.97 65.75,34.66 66.05,35.15 66.15,35.03 66.95,36.77 68.10,37.62 69.50,37.53 69.55,37.38 69.65,37.61 69.95,37.22 70.20,36.93 70.40,36.73 70.55,36.74 70.70,36.53 70.95,36.67"/><path d="M11.0 37.0h1.6v-10.0h4v10.0h1.6" fill="none" stroke="#23272E" stroke-width=".45"/><text x="18.0" y="17.0" font-family="Figtree,system-ui,sans-serif" font-size="3.6" font-weight="600" fill="#23272E">I</text><polyline fill="none" stroke="#23272E" stroke-width=".45" stroke-linejoin="round" points="17.00,87.26 17.30,87.34 17.70,87.43 18.05,87.37 18.15,87.72 19.00,87.73 19.15,87.98 19.20,87.85 19.30,86.66 19.40,85.81 19.65,81.79 19.70,81.55 19.85,83.29 20.05,86.93 20.15,88.05 20.20,88.29 20.60,87.76 20.70,87.93 21.15,87.39 23.15,86.85 24.05,86.18 24.60,85.91 25.30,86.19 25.80,86.72 27.35,87.27 27.50,87.22 27.55,87.48 28.25,87.33 28.60,86.82 28.80,86.70 28.85,86.83 29.05,86.39 29.40,86.16 29.85,86.69 30.35,87.07 30.55,87.18 30.65,87.46 31.75,87.44 31.90,87.69 32.50,87.59 32.60,87.56 32.70,88.10 32.95,87.34 33.15,84.98 33.20,84.24 33.30,82.19 33.35,81.49 33.40,81.45 33.45,82.25 33.50,83.39 33.60,84.99 33.70,86.82 33.80,87.82 33.95,88.37 34.40,87.79 36.45,87.26 37.55,86.62 37.75,86.39 38.15,86.22 38.30,86.10 38.55,85.98 38.95,86.38 39.45,87.00 39.95,87.34 40.10,87.21 41.00,87.54 42.45,87.14 42.90,86.36 43.80,86.64 44.25,87.26 44.80,87.58 46.30,87.79 46.40,87.74 46.50,88.18 46.75,87.49 46.90,85.76 47.00,84.17 47.10,81.61 47.15,80.73 47.20,80.76 47.25,81.74 47.30,82.92 47.45,85.28 47.55,87.11 47.60,87.76 47.75,88.34 48.30,87.80 50.90,86.97 51.05,87.03 51.20,86.74 51.40,86.68 51.65,86.49 52.00,86.35 52.70,86.42 53.85,87.35 54.55,87.41 54.75,87.41 55.15,87.61 56.20,87.17 56.45,86.90 56.65,86.47 56.90,86.42 57.00,86.35 58.45,87.36 59.75,87.63 60.00,87.54 60.05,87.79 60.15,87.83 60.25,88.19 60.40,87.85 60.60,86.39 60.75,83.89 60.85,81.15 60.90,80.49 60.95,80.69 61.00,81.61 61.05,82.74 61.20,85.23 61.25,86.23 61.40,88.08 61.45,88.44 61.95,87.72 62.80,87.26 63.10,87.50 64.60,86.93 64.75,86.96 64.90,86.43 65.70,86.37 65.75,86.12 66.75,86.57 67.55,86.97 69.15,87.21 69.65,87.13 70.05,86.79 70.15,86.54 70.25,86.56 70.35,86.37 70.55,86.43 70.65,86.20 70.95,86.42"/><path d="M11.0 87.0h1.6v-10.0h4v10.0h1.6" fill="none" stroke="#23272E" stroke-width=".45"/><text x="18.0" y="67.0" font-family="Figtree,system-ui,sans-serif" font-size="3.6" font-weight="600" fill="#23272E">II</text><polyline fill="none" stroke="#23272E" stroke-width=".45" stroke-linejoin="round" points="17.00,137.04 18.15,136.90 18.25,137.25 18.90,137.18 19.00,137.45 19.10,137.93 19.20,138.30 19.30,138.04 19.50,138.59 19.65,136.98 19.75,134.92 19.90,132.20 19.95,132.26 20.05,134.18 20.20,135.76 20.35,136.71 20.40,136.81 20.50,136.66 20.70,137.16 21.65,137.20 22.30,137.26 22.40,137.63 23.15,137.74 23.35,137.89 23.75,137.83 23.90,138.17 25.05,137.82 25.85,136.93 28.70,136.86 32.60,137.06 32.75,137.74 32.80,138.08 33.00,138.19 33.05,138.17 33.10,138.41 33.15,138.43 33.25,137.90 33.35,136.45 33.50,133.29 33.55,132.34 33.60,132.51 33.75,134.14 33.85,135.20 34.05,136.52 34.20,136.82 34.85,136.99 34.95,137.23 35.45,137.07 35.60,137.47 36.65,137.59 37.35,138.08 37.90,138.33 38.00,138.40 38.70,137.96 38.75,138.08 39.55,136.78 42.25,136.65 42.35,136.84 43.80,136.74 43.95,136.85 46.35,136.84 46.60,138.17 46.70,138.21 47.00,138.00 47.30,132.50 47.35,131.39 47.40,131.26 47.50,132.54 47.55,133.72 47.60,134.46 47.75,135.87 47.80,136.29 48.15,137.02 48.60,136.96 48.70,137.23 49.45,137.20 49.60,137.41 50.40,137.55 50.50,137.62 51.00,137.92 51.15,138.10 51.45,138.37 52.35,138.20 53.20,137.04 54.00,136.79 55.30,136.66 55.40,136.45 56.80,136.76 56.90,136.38 57.90,136.82 58.90,136.78 60.05,136.99 60.20,137.43 60.30,138.06 60.40,138.22 60.75,137.62 60.80,136.81 60.95,133.10 61.00,132.07 61.10,130.52 61.15,130.08 61.20,130.68 61.30,133.45 61.35,134.18 61.55,136.25 62.00,136.97 63.25,137.40 64.05,137.47 64.20,137.73 65.50,138.42 65.70,138.58 66.05,138.13 66.15,138.26 66.90,136.99 68.05,136.63 68.20,136.52 69.50,136.69 69.55,136.80 69.65,136.53 70.95,136.76"/><path d="M11.0 137.0h1.6v-10.0h4v10.0h1.6" fill="none" stroke="#23272E" stroke-width=".45"/><text x="18.0" y="117.0" font-family="Figtree,system-ui,sans-serif" font-size="3.6" font-weight="600" fill="#23272E">III</text><polyline fill="none" stroke="#23272E" stroke-width=".45" stroke-linejoin="round" points="74.00,38.40 74.10,38.51 74.70,38.06 75.00,37.63 75.40,36.80 76.70,36.42 77.65,36.43 78.10,36.63 78.35,36.83 78.45,36.78 78.50,37.07 78.65,37.55 79.60,37.15 80.45,36.23 82.05,36.34 82.20,36.31 82.35,36.79 82.45,36.92 82.55,37.60 82.60,38.14 82.70,39.80 82.75,40.43 82.85,41.95 82.90,42.13 82.95,41.54 83.00,40.23 83.10,37.29 83.15,36.60 83.20,36.23 83.25,35.65 83.40,35.04 83.50,34.97 83.85,36.02 84.40,36.57 85.65,37.05 86.00,37.20 86.30,37.18 86.85,37.82 87.05,37.93 87.20,38.32 87.70,38.36 87.95,38.70 88.70,37.64 88.75,37.72 89.15,36.86 90.30,36.59 90.50,36.42 91.95,36.73 92.20,36.96 92.50,37.46 93.15,37.40 94.00,36.42 94.20,36.48 94.30,36.30 95.55,36.44 95.65,36.16 95.75,36.34 96.00,36.10 96.25,37.04 96.40,38.60 96.50,39.89 96.55,40.98 96.60,41.81 96.65,42.24 96.70,42.16 96.75,41.22 96.85,37.98 96.90,36.86 97.00,35.89 97.05,35.76 97.15,35.01 97.20,34.87 97.35,35.58 97.70,36.16 99.35,36.87 100.15,37.03 100.35,37.38 100.55,37.48 100.90,38.11 101.65,38.30 102.40,37.71 102.95,36.90 103.30,36.71 103.60,36.63 103.70,36.42 105.05,36.66 105.15,36.52 105.25,36.66 105.30,36.40 105.80,36.84 106.15,37.02 106.50,37.69 106.80,37.31 106.95,37.39 107.45,36.54 107.50,36.65 107.55,36.44 107.70,36.73 107.80,36.31 109.25,36.27 109.30,36.31 109.40,35.87 109.70,36.02 109.85,36.50 110.00,36.80 110.15,38.05 110.30,39.82 110.40,41.66 110.45,42.19 110.50,42.10 110.55,41.16 110.60,39.84 110.70,36.93 110.80,35.44 110.95,35.07 111.00,34.88 111.20,35.68 112.20,36.32 113.60,36.96 114.25,37.37 114.50,37.61 115.00,38.29 115.20,38.44 115.65,38.42 115.75,38.41 116.45,37.43 116.90,36.68 117.05,36.59 117.20,36.43 118.75,36.57 119.35,36.56 120.10,37.26 120.30,37.08 121.00,37.02 121.50,36.70 121.60,36.45 122.05,36.46 122.25,36.25 123.30,36.16 123.55,36.31 123.70,36.51 123.80,36.93 124.00,38.40 124.05,39.09 124.15,40.99 124.25,42.13 124.30,41.93 124.35,40.99 124.45,37.85 124.50,36.74 124.65,35.38 124.75,34.85 124.85,34.72 124.95,35.25 125.30,36.08 127.20,36.92 127.90,37.26 128.40,37.94 128.55,38.09 128.65,38.41 129.00,38.30 129.20,38.46 129.25,38.71 129.75,38.16 130.20,37.35 130.65,36.84 131.40,36.51 131.75,36.47 132.75,36.62 132.85,36.50 133.45,36.85"/><text x="75.0" y="17.0" font-family="Figtree,system-ui,sans-serif" font-size="3.6" font-weight="600" fill="#23272E">aVR</text><polyline fill="none" stroke="#23272E" stroke-width=".45" stroke-linejoin="round" points="74.00,85.55 74.50,85.76 75.05,86.71 75.40,87.41 77.10,87.53 77.20,87.54 77.30,87.71 78.45,87.49 78.70,87.11 79.75,87.11 80.65,87.42 82.00,87.32 82.25,86.82 82.30,86.43 82.45,86.29 82.55,85.97 82.60,85.58 82.65,84.91 82.70,84.45 82.85,84.42 82.90,84.87 82.95,85.93 83.00,87.48 83.10,90.23 83.15,90.72 83.20,90.30 83.25,90.18 83.45,88.88 83.85,87.72 84.45,87.16 85.95,86.64 86.00,86.49 86.05,86.57 86.15,86.34 86.50,86.38 86.90,85.84 87.30,85.44 88.10,85.45 88.90,86.88 89.15,87.23 90.30,87.23 90.45,87.67 92.10,87.52 92.70,87.00 93.30,87.06 94.05,87.51 95.40,87.52 95.70,87.42 96.00,87.04 96.35,85.64 96.50,84.88 96.55,84.37 96.60,84.36 96.65,84.66 96.70,85.33 96.85,89.79 96.90,90.87 96.95,91.12 97.00,90.62 97.05,89.90 97.20,89.28 97.30,88.22 97.40,87.93 97.85,87.41 99.70,86.58 100.10,86.73 100.20,86.25 100.55,86.11 100.85,85.57 101.70,85.64 102.15,85.95 102.95,87.00 103.65,87.34 104.25,87.38 104.35,87.50 105.25,87.38 105.35,87.50 105.95,87.28 106.25,87.21 106.50,86.95 106.60,87.21 107.10,87.28 107.60,87.51 107.75,87.45 107.95,87.56 109.30,87.46 109.50,87.58 109.70,87.51 109.80,86.75 110.15,85.51 110.25,84.96 110.30,85.04 110.35,84.84 110.40,85.08 110.50,86.37 110.60,89.06 110.70,91.97 110.75,92.53 110.80,92.17 110.90,90.49 110.95,89.95 111.05,89.15 111.20,87.91 111.80,87.40 112.65,86.97 113.35,86.61 113.95,86.31 114.05,86.20 114.20,86.18 114.35,85.67 114.55,85.68 114.70,85.35 114.90,85.14 115.00,85.06 115.60,85.16 115.95,85.67 116.70,87.07 116.80,87.04 116.90,87.36 117.00,87.20 117.15,87.64 118.75,87.37 118.85,87.55 119.85,87.23 120.20,87.17 120.25,87.40 121.00,87.11 121.85,87.31 123.20,87.44 123.25,87.61 123.60,86.78 123.80,86.19 123.90,85.63 124.00,85.46 124.05,85.22 124.10,84.71 124.15,84.57 124.25,85.53 124.30,86.45 124.40,89.01 124.45,90.52 124.50,91.69 124.60,91.29 124.65,90.71 124.70,89.92 124.80,89.49 124.95,88.29 125.35,87.52 126.30,87.08 126.95,86.64 127.35,86.51 127.75,86.33 127.85,86.43 128.05,85.91 128.30,85.79 128.45,85.45 128.65,85.18 129.15,85.29 129.30,85.18 129.50,85.36 130.05,86.37 130.60,87.25 131.75,87.40 132.10,87.48 132.75,87.30 132.80,87.56 133.45,87.36"/><text x="75.0" y="67.0" font-family="Figtree,system-ui,sans-serif" font-size="3.6" font-weight="600" fill="#23272E">aVL</text><polyline fill="none" stroke="#23272E" stroke-width=".45" stroke-linejoin="round" points="74.00,137.09 75.15,136.84 77.20,137.06 78.35,136.75 78.55,136.60 78.65,136.40 80.00,137.09 80.55,137.38 82.10,137.54 82.35,137.92 82.50,137.63 82.65,137.14 82.70,136.79 82.90,134.04 82.95,133.58 83.00,133.34 83.05,133.61 83.10,133.53 83.15,133.72 83.25,135.22 83.35,136.45 83.45,137.10 83.50,137.38 85.95,137.24 86.20,137.50 86.65,137.34 87.10,137.30 87.85,137.10 88.05,137.05 88.70,136.83 88.90,136.80 89.70,137.08 90.35,137.16 90.55,137.00 92.05,136.79 92.55,136.52 93.70,137.03 95.40,137.16 95.60,137.29 95.80,137.39 96.00,137.89 96.25,137.87 96.40,137.03 96.50,136.26 96.55,135.71 96.65,134.14 96.75,133.10 96.90,133.31 96.95,133.65 97.05,135.39 97.20,136.89 97.30,137.42 100.05,137.43 100.35,137.56 101.80,137.14 102.70,137.07 103.40,137.16 104.25,137.13 105.25,137.01 105.40,137.09 106.10,136.78 106.60,136.37 107.05,136.61 107.60,137.05 107.70,136.94 107.85,137.20 109.30,137.29 109.40,137.54 109.70,137.52 109.85,137.92 110.00,138.23 110.25,136.82 110.35,135.47 110.45,133.09 110.55,132.21 110.70,132.15 110.75,132.40 110.85,134.43 110.95,136.04 111.05,136.87 111.20,137.45 114.25,137.66 114.65,137.78 115.10,137.60 115.65,137.41 116.40,136.93 116.85,137.03 117.05,137.09 119.35,137.01 120.35,136.62 121.80,137.26 122.70,137.40 123.35,137.41 123.50,137.56 123.65,138.05 123.75,138.12 123.95,137.41 124.05,136.74 124.10,136.22 124.15,135.48 124.25,133.39 124.30,132.67 124.35,132.41 124.45,132.68 124.50,132.62 124.60,134.04 124.70,135.93 124.85,137.15 124.95,137.49 126.40,137.43 127.80,137.47 128.20,137.59 128.60,137.53 129.20,137.32 129.90,136.94 130.35,137.02 131.25,137.08 131.85,137.09 132.75,137.12 133.10,136.92 133.45,136.84"/><text x="75.0" y="117.0" font-family="Figtree,system-ui,sans-serif" font-size="3.6" font-weight="600" fill="#23272E">aVF</text><polyline fill="none" stroke="#23272E" stroke-width=".45" stroke-linejoin="round" points="136.50,36.96 137.05,36.85 137.45,36.26 137.60,36.13 137.65,36.49 137.75,38.63 137.80,40.15 137.85,42.19 137.90,44.02 138.00,46.82 138.05,47.61 138.15,47.19 138.20,46.90 138.45,44.10 138.55,42.00 138.60,40.81 138.65,39.95 138.85,37.76 138.95,37.20 139.25,36.62 139.65,36.45 141.45,36.45 141.50,36.68 142.90,36.35 143.10,36.62 143.40,36.74 145.95,36.85 146.15,36.93 147.80,36.53 147.95,36.88 148.05,37.21 150.10,36.74 150.85,36.53 151.30,36.22 151.35,36.07 151.40,36.35 151.45,37.31 151.50,38.53 151.55,40.13 151.60,42.22 151.65,44.10 151.75,46.98 151.80,47.51 151.95,46.77 152.05,45.78 152.20,43.84 152.25,42.93 152.35,40.68 152.50,38.58 152.55,37.97 152.70,36.91 153.15,36.41 155.85,36.17 156.70,36.37 156.85,36.59 160.50,36.66 160.60,36.82 160.95,36.44 161.60,36.61 161.70,36.80 161.80,37.33 164.65,36.36 164.85,36.13 165.05,35.57 165.20,36.72 165.25,37.78 165.30,39.22 165.40,42.79 165.45,44.36 165.50,45.64 165.55,46.71 165.60,46.72 165.70,46.11 165.95,43.59 166.00,42.89 166.05,41.93 166.15,39.78 166.30,37.83 166.45,36.78 166.90,36.06 169.60,36.11 170.85,36.41 172.95,36.41 173.10,36.35 174.75,36.28 174.90,36.00 175.30,36.26 175.70,36.95 176.00,37.04 177.55,36.57 177.65,36.27 178.55,36.23 178.80,35.69 178.85,35.42 178.90,35.63 179.00,36.84 179.05,38.01 179.15,41.29 179.20,43.02 179.25,44.49 179.30,45.57 179.35,46.21 179.40,46.16 179.55,44.88 179.75,43.01 179.80,42.29 179.95,39.30 180.10,37.65 180.25,36.73 180.40,36.20 180.75,35.88 183.35,36.18 185.65,36.48 186.15,36.39 187.25,36.53 187.50,36.38 188.50,36.26 188.65,36.16 189.00,36.40 189.35,37.02 190.80,36.81 191.00,36.59 192.30,36.54 192.40,36.10 192.50,35.84 192.60,35.29 192.65,35.54 192.75,36.82 192.80,38.16 192.85,39.76 192.95,43.49 193.05,46.26 193.10,47.13 193.15,47.14 193.25,46.50 193.45,44.27 193.50,43.67 193.55,42.83 193.65,40.61 193.70,39.67 193.90,37.53 194.00,36.84 194.10,36.40 194.40,36.06 195.95,36.08"/><text x="137.5" y="17.0" font-family="Figtree,system-ui,sans-serif" font-size="3.6" font-weight="600" fill="#23272E">V1</text><polyline fill="none" stroke="#23272E" stroke-width=".45" stroke-linejoin="round" points="136.50,87.15 136.95,86.94 137.25,86.54 137.35,86.04 137.40,85.46 137.50,83.25 137.55,82.78 137.60,83.56 137.65,85.91 137.70,89.35 137.85,100.44 137.90,103.59 137.95,105.91 138.00,107.66 138.05,108.57 138.10,108.92 138.20,108.45 138.25,108.11 138.30,106.85 138.45,101.08 138.60,95.18 138.65,93.49 138.75,90.67 138.85,88.69 138.90,88.03 139.05,86.86 139.20,86.24 139.65,85.49 140.55,85.09 140.70,84.90 141.30,84.37 141.45,84.18 141.60,83.62 141.95,83.07 142.25,82.79 142.85,82.88 143.30,83.81 144.00,86.00 144.35,86.78 144.45,86.81 144.55,87.07 144.80,87.08 144.95,87.34 146.65,87.14 147.00,86.56 147.10,86.72 147.65,86.05 147.75,86.12 148.10,87.14 148.45,87.16 148.60,87.37 149.45,87.37 149.50,87.58 151.00,86.97 151.10,86.08 151.15,85.42 151.25,83.28 151.30,82.75 151.35,83.79 151.40,86.31 151.45,89.69 151.55,97.41 151.60,101.11 151.65,104.14 151.70,106.36 151.75,107.95 151.80,108.81 151.90,108.83 151.95,108.76 152.00,108.21 152.05,106.92 152.30,96.77 152.40,93.36 152.50,90.45 152.55,89.38 152.70,87.54 152.80,86.76 153.15,85.91 153.50,85.43 154.25,85.06 154.95,84.48 155.25,83.96 155.40,83.73 155.55,83.50 155.65,83.12 155.90,82.91 156.10,82.72 156.75,83.14 157.00,83.69 157.85,86.24 158.25,86.82 158.65,87.13 160.30,86.91 161.00,86.44 161.45,85.96 161.80,86.92 162.85,87.30 164.70,86.81 164.75,86.71 164.90,85.49 164.95,84.72 165.00,83.58 165.05,82.80 165.10,82.97 165.15,84.57 165.20,87.29 165.25,90.58 165.35,98.40 165.40,101.81 165.45,104.52 165.50,106.33 165.55,107.64 165.60,107.92 165.70,107.77 165.80,106.68 165.85,105.21 166.00,99.37 166.15,93.82 166.25,90.72 166.30,89.53 166.35,88.62 166.50,86.94 166.65,86.15 167.05,85.35 167.20,85.31 167.35,85.12 168.20,84.65 168.75,84.15 168.95,83.78 169.40,83.10 169.80,82.53 170.00,82.38 170.35,82.53 170.70,83.20 171.00,84.29 171.50,85.73 172.20,86.76 173.70,86.84 174.80,86.39 174.90,86.04 175.20,85.55 175.50,86.43 175.95,86.86 177.35,86.98 178.35,86.87 178.55,86.56 178.65,85.85 178.70,85.32 178.80,83.27 178.85,82.66 178.90,83.02 178.95,84.87 179.00,88.03 179.15,99.12 179.20,102.37 179.25,104.86 179.30,106.50 179.35,107.41 179.40,107.60 179.50,107.39 179.55,107.04 179.60,105.97 179.85,97.04 179.95,93.05 180.05,90.37 180.10,89.29 180.20,88.00 180.25,87.46 180.45,86.35 180.60,85.82 180.85,85.64 181.15,85.26 181.95,84.86 182.05,84.48 182.35,84.43 182.95,83.56 183.25,83.00 183.50,82.77 183.60,82.53 184.20,82.81 184.75,84.26 185.40,86.10 185.95,86.89 187.40,87.14 188.20,86.69 188.75,86.02 189.60,86.90 190.50,87.09 190.60,87.15 190.75,87.17 190.85,87.35 192.15,86.86 192.30,86.77 192.40,85.93 192.45,85.34 192.55,83.08 192.60,82.53 192.65,83.18 192.70,85.31 192.75,88.62 192.85,96.31 192.90,99.89 192.95,103.09 193.00,105.45 193.05,107.14 193.10,108.30 193.15,108.60 193.30,108.11 193.35,106.95 193.40,105.06 193.50,100.85 193.70,93.50 193.80,90.65 193.85,89.61 193.95,88.08 194.05,86.92 194.25,86.15 194.60,85.56 194.90,85.36 195.10,85.09 195.50,84.94 195.75,84.72 195.90,84.73 195.95,84.57"/><text x="137.5" y="67.0" font-family="Figtree,system-ui,sans-serif" font-size="3.6" font-weight="600" fill="#23272E">V2</text><polyline fill="none" stroke="#23272E" stroke-width=".45" stroke-linejoin="round" points="136.50,137.17 137.20,137.12 137.30,136.81 137.45,135.41 137.50,134.45 137.55,133.81 137.60,133.90 137.65,134.77 137.70,136.26 137.75,138.27 137.80,140.59 137.85,143.33 137.90,145.70 137.95,147.41 138.00,148.75 138.15,151.07 138.20,151.95 138.25,152.53 138.30,152.18 138.35,151.27 138.55,146.06 138.65,143.13 138.75,140.70 138.80,139.75 138.95,137.94 139.15,137.09 139.40,136.54 140.35,135.84 141.30,135.10 141.80,134.22 142.00,134.00 142.35,133.69 143.20,134.12 143.75,135.58 143.85,135.77 144.10,136.35 144.35,136.79 145.10,137.29 146.00,137.28 146.90,137.09 147.45,136.61 147.90,136.57 148.10,137.06 148.45,137.08 148.55,137.25 148.95,137.44 149.45,137.51 149.65,137.59 150.85,137.25 150.95,137.40 151.05,137.09 151.20,135.60 151.30,133.95 151.35,134.12 151.40,135.11 151.45,136.66 151.50,138.76 151.60,144.04 151.65,146.29 151.70,147.94 151.75,149.20 151.85,150.29 151.95,152.34 152.00,152.73 152.05,152.43 152.10,151.42 152.25,147.49 152.35,144.51 152.50,140.62 152.55,139.72 152.70,138.02 152.85,137.21 153.40,136.26 154.45,135.70 155.05,135.16 156.00,133.86 156.55,133.94 156.80,134.08 157.85,136.28 158.30,136.88 158.65,137.09 160.40,136.91 160.95,136.57 161.40,136.23 161.60,136.27 161.80,136.83 162.30,137.08 163.55,137.21 164.70,137.04 164.80,136.77 164.95,135.67 165.05,134.00 165.10,134.21 165.20,135.24 165.25,136.93 165.40,144.32 165.45,146.22 165.50,147.46 165.55,148.49 165.60,148.96 165.65,149.65 165.70,150.75 165.75,151.50 165.80,151.76 165.85,151.16 166.00,147.70 166.20,142.19 166.25,140.78 166.30,139.70 166.45,137.96 166.60,137.06 166.95,136.35 167.50,135.85 167.65,135.83 168.15,135.58 168.35,135.14 168.70,135.09 168.90,134.53 169.15,134.36 169.30,134.06 169.90,133.26 170.55,133.59 171.00,134.68 171.40,135.81 172.10,136.70 172.70,137.05 174.35,136.80 174.85,136.47 175.20,135.89 175.60,136.77 176.00,137.05 177.25,137.26 178.50,137.04 178.55,136.98 178.70,135.92 178.75,135.30 178.85,133.71 178.90,133.47 178.95,134.02 179.00,135.44 179.05,137.56 179.15,142.52 179.20,144.74 179.25,146.51 179.30,147.77 179.40,149.09 179.45,149.96 179.50,151.08 179.55,151.73 179.60,151.67 179.65,150.93 179.80,147.54 179.85,146.25 179.95,143.07 180.10,139.84 180.20,138.70 180.30,137.86 180.40,137.31 180.75,136.56 181.35,136.01 181.70,135.73 182.00,135.57 182.10,135.28 182.45,135.25 182.60,134.88 182.80,134.83 182.90,134.46 183.15,134.13 183.35,133.98 183.50,133.81 183.55,133.55 184.25,133.88 184.60,134.39 184.85,135.14 185.10,135.53 185.35,136.28 186.00,137.04 186.25,137.23 186.40,137.32 187.95,137.14 188.45,136.82 188.95,136.16 189.45,137.12 190.10,137.22 190.30,137.45 191.70,137.31 192.30,136.91 192.45,135.96 192.50,135.33 192.60,133.68 192.65,133.64 192.70,134.43 192.75,135.87 192.85,140.64 192.95,145.53 193.00,147.24 193.05,148.52 193.30,152.80 193.35,152.59 193.40,151.53 193.55,147.71 193.70,143.36 193.80,140.94 193.85,140.03 194.00,138.14 194.15,137.22 194.65,136.30 195.10,135.76 195.55,135.59 195.95,135.32"/><text x="137.5" y="117.0" font-family="Figtree,system-ui,sans-serif" font-size="3.6" font-weight="600" fill="#23272E">V3</text><polyline fill="none" stroke="#23272E" stroke-width=".45" stroke-linejoin="round" points="199.00,36.55 199.55,37.02 200.15,37.29 201.80,37.15 202.70,36.95 203.45,37.01 203.70,37.23 204.00,37.43 206.15,37.55 206.20,37.47 206.30,36.75 206.55,35.94 206.80,36.52 206.90,37.35 206.95,37.97 207.00,39.18 207.05,39.86 207.20,41.27 207.25,41.42 207.40,40.66 207.60,38.65 207.75,37.81 208.20,37.13 209.80,36.71 211.30,35.90 212.50,36.28 213.00,36.83 213.35,37.13 215.50,37.19 216.70,36.72 218.10,37.38 219.95,37.36 220.10,36.72 220.30,35.78 220.60,36.26 220.65,36.22 220.70,36.56 220.75,37.71 220.85,39.40 221.00,40.89 221.05,41.23 221.20,40.51 221.45,38.26 221.75,37.55 222.40,37.13 224.25,36.53 224.95,35.97 226.40,36.33 227.25,36.77 228.45,36.93 229.95,36.69 230.00,36.40 230.30,36.41 231.80,36.90 233.75,37.30 234.00,35.46 234.05,35.19 234.30,35.26 234.35,34.91 234.40,34.97 234.50,35.85 234.55,37.19 234.60,38.29 234.80,40.72 234.95,40.35 235.20,38.30 235.35,37.68 235.75,37.05 236.95,36.74 237.15,36.57 237.60,36.60 237.75,36.28 238.35,36.09 238.80,36.02 238.90,35.93 238.95,35.77 239.85,35.91 240.35,36.52 241.20,37.11 242.50,37.21 243.75,36.78 244.10,36.65 245.55,37.21 245.70,37.46 247.35,37.34 247.60,36.93 247.65,36.70 247.80,35.59 248.20,36.27 248.25,36.85 248.35,39.15 248.40,40.01 248.45,40.52 248.60,41.42 248.70,40.99 248.75,40.71 248.95,38.76 249.00,38.38 249.30,37.60 249.90,37.18 251.25,36.76 251.90,36.42 252.65,35.95 252.75,35.88 253.60,36.02 253.95,36.48 254.05,36.43 254.55,37.03 255.30,37.32 256.60,37.20 257.40,36.78 257.75,36.53 258.45,36.92"/><text x="200.0" y="17.0" font-family="Figtree,system-ui,sans-serif" font-size="3.6" font-weight="600" fill="#23272E">V4</text><polyline fill="none" stroke="#23272E" stroke-width=".45" stroke-linejoin="round" points="199.00,86.60 199.85,87.25 200.10,87.31 201.50,87.44 203.05,86.87 203.90,87.26 204.20,87.41 206.00,87.35 206.05,87.57 206.30,87.10 206.50,85.67 206.65,85.17 206.80,83.80 206.85,84.13 206.95,85.38 207.00,86.76 207.05,87.77 207.20,89.74 207.30,90.12 207.45,89.69 207.55,88.63 207.85,87.78 208.40,87.31 210.35,86.63 211.25,86.15 211.35,85.97 212.55,86.43 213.30,87.18 214.20,87.29 214.35,87.35 215.65,87.32 216.60,86.55 217.15,87.04 217.85,87.38 219.65,87.54 219.90,87.49 220.10,87.11 220.25,86.10 220.40,85.10 220.50,84.36 220.60,83.23 220.65,83.14 220.70,83.85 220.75,85.26 220.85,87.34 221.00,89.43 221.10,89.95 221.25,89.63 221.35,88.71 221.50,88.14 221.75,87.64 222.25,87.30 224.70,86.45 224.90,86.21 225.20,86.18 225.35,86.11 226.65,86.67 228.05,87.24 229.65,87.00 230.10,86.71 230.30,86.56 231.65,87.21 231.95,87.35 233.55,87.44 233.80,87.53 234.00,86.11 234.10,85.20 234.20,84.43 234.40,82.12 234.45,82.36 234.50,83.67 234.55,85.25 234.60,86.52 234.70,88.06 234.80,89.45 234.85,89.72 235.00,89.67 235.15,88.50 235.30,87.90 235.70,87.33 237.90,86.68 238.20,86.53 238.65,86.32 239.10,86.13 239.40,86.05 240.55,86.83 241.10,87.14 241.40,87.20 241.50,87.26 242.85,87.19 242.95,87.38 243.55,87.01 244.75,86.89 245.15,87.19 245.50,87.32 246.65,87.32 246.80,87.49 247.55,87.56 247.70,86.60 247.80,85.71 248.00,84.84 248.05,84.34 248.10,83.56 248.15,83.41 248.25,83.94 248.35,86.96 248.40,87.95 248.55,89.59 248.60,89.96 248.75,89.94 249.00,88.20 249.45,87.50 250.95,87.05 252.90,86.01 253.40,85.89 253.50,85.90 254.00,86.48 254.60,87.00 255.10,87.19 256.70,87.04 258.45,86.85"/><text x="200.0" y="67.0" font-family="Figtree,system-ui,sans-serif" font-size="3.6" font-weight="600" fill="#23272E">V5</text><polyline fill="none" stroke="#23272E" stroke-width=".45" stroke-linejoin="round" points="199.00,136.79 200.35,137.36 200.65,137.25 200.75,137.61 202.40,137.12 203.20,137.02 203.80,137.21 203.90,137.27 204.05,137.45 206.00,137.37 206.20,137.76 206.30,137.57 206.45,136.66 206.65,134.71 206.80,132.43 206.85,131.99 206.90,132.42 207.00,134.75 207.05,135.63 207.15,137.09 207.20,137.89 207.30,138.76 207.70,138.05 207.95,137.67 209.30,137.20 210.85,136.73 211.40,136.44 212.75,136.68 214.00,137.37 215.45,137.27 216.20,136.93 216.55,136.68 217.45,137.14 219.50,137.51 219.95,137.41 220.10,137.28 220.25,136.49 220.45,134.32 220.60,131.75 220.65,131.47 220.70,132.07 220.75,133.36 220.80,134.43 221.00,137.73 221.05,138.28 221.10,138.61 221.25,138.43 221.95,137.48 224.20,136.94 224.85,136.53 225.90,136.27 226.00,136.28 226.95,136.97 228.45,137.26 229.65,137.14 230.20,136.78 230.30,136.64 232.05,137.35 233.30,137.49 233.65,137.55 233.75,137.80 233.90,137.40 234.00,136.71 234.15,135.00 234.35,131.34 234.40,130.65 234.45,130.74 234.50,131.95 234.55,133.46 234.60,134.56 234.75,137.11 234.90,138.59 234.95,138.74 235.40,137.87 236.40,137.33 238.15,136.78 238.45,136.63 238.95,136.50 239.15,136.42 240.30,136.80 241.35,137.25 242.30,137.37 243.65,136.99 243.90,136.78 244.00,136.71 246.20,137.26 246.30,137.40 246.90,137.34 247.00,137.57 247.60,137.51 247.75,136.72 247.90,135.48 248.00,134.29 248.10,132.49 248.15,131.75 248.20,131.63 248.25,132.20 248.35,134.84 248.40,135.84 248.60,138.42 248.65,138.80 248.70,138.87 249.05,137.96 249.40,137.44 251.20,137.06 252.90,136.34 253.35,136.42 254.50,136.90 255.10,137.26 255.30,137.07 255.45,137.42 258.10,136.78 258.45,136.95"/><text x="200.0" y="117.0" font-family="Figtree,system-ui,sans-serif" font-size="3.6" font-weight="600" fill="#23272E">V6</text><polyline fill="none" stroke="#23272E" stroke-width=".45" stroke-linejoin="round" points="17.00,186.27 17.30,186.35 17.70,186.44 18.05,186.39 18.15,186.74 19.00,186.74 19.15,186.99 19.20,186.86 19.30,185.67 19.40,184.82 19.65,180.80 19.70,180.56 19.85,182.31 20.05,185.94 20.15,187.06 20.20,187.30 20.60,186.77 20.70,186.94 21.15,186.40 23.15,185.86 24.05,185.19 24.60,184.93 25.30,185.20 25.80,185.73 27.35,186.28 27.50,186.23 27.55,186.49 28.25,186.34 28.60,185.84 28.80,185.71 28.85,185.85 29.05,185.40 29.40,185.18 29.85,185.70 30.35,186.08 30.55,186.19 30.65,186.48 31.75,186.45 31.90,186.70 32.50,186.61 32.60,186.57 32.70,187.12 32.95,186.36 33.15,184.00 33.20,183.25 33.30,181.21 33.35,180.50 33.40,180.46 33.45,181.27 33.50,182.40 33.60,184.01 33.70,185.83 33.80,186.84 33.95,187.38 34.40,186.80 36.45,186.27 37.55,185.63 37.75,185.41 38.15,185.23 38.30,185.11 38.55,185.00 38.95,185.39 39.45,186.01 39.95,186.35 40.10,186.22 41.00,186.55 42.45,186.15 42.90,185.37 43.80,185.66 44.25,186.27 44.80,186.59 46.30,186.80 46.40,186.75 46.50,187.19 46.75,186.50 46.90,184.78 47.00,183.18 47.10,180.63 47.15,179.74 47.20,179.77 47.25,180.75 47.30,181.93 47.45,184.30 47.55,186.12 47.60,186.77 47.75,187.35 48.30,186.82 50.90,185.99 51.05,186.05 51.20,185.75 51.40,185.70 51.65,185.50 52.00,185.37 52.70,185.43 53.85,186.36 54.55,186.42 54.75,186.42 55.15,186.63 56.20,186.19 56.45,185.91 56.65,185.48 56.90,185.43 57.00,185.37 58.45,186.38 59.75,186.65 60.00,186.55 60.05,186.80 60.15,186.85 60.25,187.21 60.40,186.86 60.60,185.40 60.75,182.90 60.85,180.16 60.90,179.50 60.95,179.70 61.00,180.62 61.05,181.75 61.20,184.25 61.25,185.24 61.40,187.10 61.45,187.45 61.95,186.73 62.80,186.28 63.10,186.51 64.60,185.95 64.75,185.97 64.90,185.44 65.70,185.38 65.75,185.14 66.75,185.59 67.55,185.98 69.15,186.22 69.65,186.14 70.05,185.80 70.15,185.55 70.25,185.57 70.35,185.39 70.55,185.44 70.65,185.21 71.30,185.74 71.70,186.31 72.75,186.55 72.90,186.79 74.05,186.88 74.10,187.03 74.15,186.93 74.25,186.30 74.40,184.72 74.45,183.93 74.60,180.91 74.65,180.20 74.70,180.34 74.85,183.55 74.95,184.84 75.00,185.85 75.10,186.90 75.25,187.54 75.70,186.74 77.90,186.02 78.05,185.84 78.50,185.89 78.60,185.57 78.85,185.51 79.65,185.06 80.45,185.35 80.95,186.07 82.20,186.44 83.45,186.31 83.85,185.96 83.95,186.01 84.00,185.72 84.15,185.25 85.15,185.84 85.95,186.78 87.65,186.86 87.70,186.98 87.95,186.61 88.10,185.46 88.25,183.15 88.35,181.16 88.40,180.62 88.45,180.70 88.50,181.41 88.55,182.63 88.60,183.50 88.70,184.86 88.75,185.73 88.85,186.88 88.95,187.38 89.00,187.62 89.35,186.88 89.90,186.50 91.20,186.10 91.45,186.07 91.75,186.26 92.25,185.81 92.45,185.68 92.55,185.65 92.70,185.32 93.20,185.24 93.45,184.86 94.20,185.47 94.25,185.35 94.70,186.08 96.00,186.40 97.40,186.11 97.80,185.66 98.00,185.38 98.70,185.63 99.45,186.44 99.70,186.42 99.80,186.59 101.05,186.49 101.15,186.82 101.25,186.67 101.50,187.21 101.75,186.57 101.90,184.96 102.00,183.59 102.10,181.39 102.15,180.60 102.20,180.28 102.25,180.60 102.35,182.88 102.45,184.26 102.50,185.12 102.65,186.98 102.70,187.36 102.80,187.36 103.20,186.84 105.20,186.36 105.85,186.13 106.55,185.48 107.20,185.27 108.05,185.67 108.45,186.18 108.75,186.33 109.10,186.36 109.20,186.57 110.55,186.24 110.65,186.39 110.75,186.25 110.80,186.51 111.30,186.05 111.60,185.92 112.00,185.15 112.35,185.54 112.45,185.40 112.95,186.31 113.00,186.23 113.05,186.44 113.20,186.14 113.30,186.59 114.75,186.71 114.80,186.67 114.90,187.13 115.50,186.96 115.65,185.62 115.75,184.38 115.80,183.58 115.85,182.51 115.90,181.12 115.95,179.95 116.00,179.67 116.05,180.04 116.10,180.88 116.20,182.82 116.25,183.54 116.30,184.67 116.35,185.45 116.45,186.66 116.50,187.11 116.60,187.23 120.10,186.06 120.50,185.62 120.60,185.46 120.85,185.45 121.15,185.34 121.25,185.28 121.90,185.61 122.50,186.32 123.70,186.41 124.85,186.31 125.60,185.62 126.55,185.98 127.00,186.29 127.10,186.56 127.55,186.58 127.75,186.79 129.00,186.82 129.10,187.14 129.25,186.98 129.50,185.20 129.55,184.44 129.75,180.19 129.80,179.85 129.85,180.30 129.95,182.56 130.20,186.52 130.30,187.37 130.35,187.63 130.50,187.44 130.80,186.90 133.70,186.01 134.05,185.71 134.15,185.38 134.50,185.44 134.70,185.25 134.75,185.00 135.40,185.31 135.85,185.96 136.90,186.43 137.30,186.44 138.45,186.24 139.05,185.95 139.30,185.38 140.10,185.77 140.45,186.09 140.80,186.18 141.15,186.69 142.30,186.56 142.40,186.56 142.50,186.93 142.80,186.84 142.90,187.18 143.00,186.90 143.15,185.93 143.25,185.02 143.40,182.79 143.50,180.66 143.55,180.21 143.60,180.50 143.65,181.46 143.70,182.62 143.90,185.93 144.00,187.12 144.05,187.41 144.50,186.68 146.90,186.04 147.25,186.10 147.40,185.64 147.70,185.73 147.75,185.51 147.90,185.56 148.00,185.22 148.10,185.16 148.30,185.03 149.45,185.41 149.85,185.88 150.90,186.21 151.25,186.13 151.35,185.95 152.15,186.27 152.20,186.15 152.25,185.79 152.65,185.99 152.75,185.49 152.85,185.61 153.00,185.29 153.80,185.49 154.30,186.03 155.40,186.36 156.50,186.51 156.70,186.68 156.85,186.13 157.00,184.97 157.05,184.45 157.10,183.58 157.20,181.55 157.30,180.13 157.35,180.36 157.45,182.67 157.50,183.17 157.60,185.26 157.65,186.00 157.75,186.99 157.90,187.21 158.30,186.44 160.40,185.97 160.75,185.93 160.85,185.63 161.10,185.74 161.25,185.43 161.70,185.25 161.75,185.32 161.85,184.94 162.15,184.90 162.45,184.76 162.50,184.55 162.90,184.78 163.30,185.54 164.30,185.99 165.40,186.14 166.20,185.81 166.55,185.55 166.70,185.47 166.90,185.00 167.05,185.06 167.15,184.84 167.95,185.69 168.25,186.39 168.55,186.28 168.65,186.58 168.90,186.62 169.00,186.69 169.40,186.69 169.50,187.00 170.25,187.05 170.50,187.29 170.60,187.03 170.65,186.72 170.80,184.96 170.85,184.28 171.00,181.10 171.05,180.27 171.10,180.55 171.20,181.87 171.45,186.31 171.50,187.03 171.60,187.63 171.70,187.58 172.10,187.08 174.00,186.49 174.55,186.33 174.65,186.53 175.05,185.81 176.45,185.55 177.00,185.91 177.05,185.88 177.15,186.36 177.55,186.36 177.75,186.57 178.25,186.55 178.35,186.73 180.00,186.39 180.35,186.15 180.75,185.58 180.90,185.62 181.00,186.02 181.40,185.73 181.80,186.35 181.85,186.30 181.95,186.66 182.40,186.59 182.55,186.78 182.65,187.02 184.00,186.90 184.10,187.14 184.30,187.08 184.45,186.15 184.60,184.55 184.65,183.58 184.75,180.99 184.80,180.07 184.85,179.58 184.90,179.85 185.05,182.86 185.20,185.61 185.30,186.85 185.45,187.44 185.90,186.87 188.00,186.40 188.10,186.59 189.35,185.79 190.55,185.48 190.70,185.75 190.95,186.09 191.10,186.29 192.15,186.55 193.60,186.27 194.05,185.87 194.40,185.46 194.60,185.34 194.70,185.73 195.05,185.60 195.25,185.81 195.50,186.01 195.70,186.55 196.20,186.54 196.35,186.75 197.85,186.85 197.95,187.14 198.05,186.97 198.20,186.09 198.35,184.58 198.40,183.75 198.55,180.72 198.60,180.21 198.65,180.52 198.75,182.77 199.00,186.55 199.05,187.11 199.10,187.36 199.60,186.70 202.30,185.90 203.35,185.33 203.65,185.03 204.35,185.51 204.65,185.82 204.70,185.98 204.75,185.92 204.90,186.15 205.10,186.33 205.40,186.46 206.95,186.41 207.50,186.18 207.90,185.84 209.25,185.91 209.55,186.23 209.65,186.18 209.75,186.71 210.75,186.58 210.90,186.92 211.55,186.78 211.70,187.24 211.85,186.76 212.00,185.72 212.05,185.31 212.15,183.86 212.20,182.97 212.25,181.80 212.30,180.96 212.35,180.51 212.40,180.73 212.45,181.71 212.50,182.90 212.55,183.65 212.60,184.20 212.70,185.89 212.75,186.58 212.80,187.05 212.95,187.62 213.35,186.84 215.95,186.20 216.70,185.73 217.20,185.32 217.65,185.25 218.55,185.88 218.80,186.36 219.65,186.43 221.15,186.40 221.85,185.94 222.15,185.72 222.90,186.01 223.30,186.37 223.55,186.73 225.30,186.86 225.40,187.19 225.60,187.01 225.75,186.18 225.90,184.57 225.95,183.78 226.00,182.42 226.10,180.42 226.15,180.40 226.25,181.49 226.35,183.40 226.50,185.92 226.65,187.12 226.70,187.32 227.15,186.72 229.50,186.16 230.55,185.54 230.70,185.28 231.15,185.19 231.25,184.86 231.75,185.23 232.50,186.00 233.80,186.30 234.40,186.04 234.75,186.23 235.45,185.77 235.65,185.42 236.90,186.01 237.50,186.47 238.45,186.75 238.85,186.86 239.15,187.11 239.30,187.21 239.55,185.83 239.70,183.75 239.75,182.79 239.85,180.11 239.90,179.41 239.95,179.45 240.00,180.12 240.10,182.40 240.25,184.79 240.40,186.61 240.50,187.38 240.95,186.74 242.20,186.37 242.45,186.31 242.75,186.15 243.25,186.22 243.50,185.68 244.35,185.69 244.45,185.34 244.95,185.16 245.05,185.02 245.90,185.74 246.60,186.01 247.80,186.13 248.75,186.09 248.85,185.90 249.20,185.92 249.30,185.52 250.55,186.06 251.05,186.46 252.80,186.77 252.90,186.65 252.95,186.85"/><path d="M11.0 186.0h1.6v-10.0h4v10.0h1.6" fill="none" stroke="#23272E" stroke-width=".45"/><text x="18" y="168" font-family="Figtree,system-ui,sans-serif" font-size="3.6" font-weight="600" fill="#23272E">II</text><text x="10.0" y="215" font-family="Figtree,system-ui,sans-serif" font-size="3.2" fill="#5E646B">25 mm/s · 10 mm/mV · PTB-XL (PhysioNet), CC BY 4.0, registro 06997</text></svg>