<svg xmlns="http://www.w3.org/2000/svg" viewBox="0 0 300 316" role="img" aria-label="Pneumotórax hipertensivo"><style>text{font-family:Figtree,system-ui,sans-serif}.t{font-size:12.5px;font-weight:600;fill:#23272E}.l{font-size:10.5px;fill:#5E646B}.k{font-size:10.5px;font-weight:600;fill:#0B6A72}</style><rect width="300" height="316" fill="#FFFFFF"/><text class="t" x="10" y="20">Pneumotórax hipertensivo</text><g fill="none" stroke="#5E646B" stroke-width="1.6"><path d="M38 96 q 112 -26 224 0" opacity=".45"/><path d="M40 126 q 108 -28 216 0" opacity=".45"/><path d="M42 156 q 104 -30 208 0" opacity=".45"/><path d="M44 186 q 100 -32 200 0" opacity=".45"/><path d="M46 216 q 96 -34 192 0" opacity=".45"/><path d="M48 246 q 92 -36 184 0" opacity=".45"/><path d="M150 44 q-58 6 -74 44 q-20 48 -22 132 q-2 44 8 78"/><path d="M150 44 q58 6 74 44 q20 48 22 132 q2 44 -8 78"/><path d="M62 274 q42 22 76 6" stroke-width="2"/><path d="M238 274 q-42 22 -76 6" stroke-width="2"/><path d="M150 50v210" opacity=".35"/><path d="M138 50v42 M162 50v42" opacity=".5"/></g><path d="M150 150 q42 8 52 58 q6 40 -28 52 q-28 10 -40 -8" fill="#F1F1EC" stroke="#5E646B" stroke-width="1.8"/><path d="M96 96 q-24 60 -22 132 q-1 30 6 46" stroke="#C6453D" stroke-width="2.4" fill="none"/><text class="k" x="16" y="150" fill="#C6453D">linha pleural</text><text class="l" x="14" y="176">sem trama vascular</text><path d="M150 50v210" stroke="#C6453D" stroke-width="2" stroke-dasharray="4 3"/><text class="k" x="176" y="120" fill="#C6453D">mediastino desviado</text></svg>